<?xml version="1.0" standalone="no"?>
<!DOCTYPE svg PUBLIC "-//W3C//DTD SVG 20010904//EN"
 "http://www.w3.org/TR/2001/REC-SVG-20010904/DTD/svg10.dtd">
<svg version="1.0" xmlns="http://www.w3.org/2000/svg"
 width="1600.000000pt" height="1600.000000pt" viewBox="0 0 1600.000000 1600.000000"
 preserveAspectRatio="xMidYMid meet">

<g transform="translate(0.000000,1600.000000) scale(0.100000,-0.100000)"
fill="#000000" stroke="none">
<path d="M10856 13019 c-15 -12 -37 -42 -51 -68 -13 -26 -43 -71 -67 -100 -67
-83 -76 -99 -82 -160 -13 -116 -26 -149 -97 -249 -75 -104 -104 -176 -133
-328 -8 -43 -21 -95 -29 -114 -8 -19 -20 -60 -26 -91 -9 -44 -23 -69 -62 -115
-28 -32 -56 -70 -64 -84 -26 -50 -63 -217 -70 -310 -6 -91 -19 -212 -31 -293
l-6 -38 -19 35 c-25 48 -49 289 -42 428 l6 107 -29 29 c-27 26 -29 35 -29 99
0 59 -4 77 -23 102 -21 29 -22 40 -20 144 l3 114 -38 42 c-37 42 -38 43 -31
104 3 34 26 123 50 198 50 155 55 200 22 223 -34 24 -53 20 -87 -20 -67 -75
-101 -139 -112 -204 -11 -71 -20 -91 -59 -136 -24 -27 -37 -56 -67 -144 -4
-10 -9 -3 -15 18 -11 40 -32 50 -58 27 -18 -16 -19 -16 -22 12 -3 32 -30 42
-55 21 -27 -22 -72 -128 -78 -187 -9 -75 -68 -301 -112 -431 -43 -125 -52
-225 -33 -363 27 -193 11 -285 -65 -389 -81 -108 -89 -129 -89 -228 0 -66 6
-102 27 -162 31 -88 33 -130 12 -232 -14 -65 -14 -78 0 -116 12 -34 14 -72 9
-179 -6 -152 0 -186 39 -214 22 -17 29 -18 42 -7 26 22 46 68 66 154 11 45 30
107 44 139 28 66 32 141 13 228 -26 117 -5 187 81 283 l51 57 -2 117 c-1 88 4
142 20 219 12 55 22 115 22 133 0 18 12 90 26 161 26 128 26 130 10 212 -9 45
-16 98 -16 117 0 64 71 302 86 287 3 -3 5 -58 5 -121 l-2 -116 40 -43 c22 -23
43 -55 46 -70 4 -15 23 -40 42 -54 43 -33 50 -50 63 -160 7 -56 22 -112 42
-157 17 -38 34 -98 38 -132 4 -34 12 -68 16 -76 5 -7 9 -60 9 -116 0 -101 1
-104 28 -128 15 -13 37 -24 48 -24 34 0 59 -36 59 -86 0 -108 48 -194 107
-194 54 0 65 25 72 162 7 115 10 128 45 203 36 74 39 88 45 200 7 130 10 139
77 224 24 31 53 83 64 116 18 52 20 73 14 157 -5 74 -2 120 11 190 10 51 22
98 28 103 6 7 7 -2 3 -25 -12 -67 7 -126 58 -180 52 -56 56 -74 27 -159 -10
-31 -28 -85 -40 -121 -27 -84 -28 -186 -1 -272 15 -48 20 -91 20 -186 0 -105
4 -135 25 -198 14 -41 37 -93 52 -115 62 -93 64 -96 55 -120 -5 -13 -15 -58
-21 -99 -15 -89 -6 -122 39 -148 28 -16 30 -20 30 -80 0 -35 5 -72 10 -83 6
-10 36 -37 67 -60 l56 -42 -7 -67 c-5 -57 -3 -72 12 -90 16 -20 21 -21 41 -11
19 10 26 10 40 -3 22 -20 45 -20 60 -2 8 10 9 41 2 116 -9 93 -13 107 -52 172
-46 78 -44 56 -23 248 6 52 4 58 -36 117 l-41 62 6 83 c6 78 5 87 -24 150 -38
82 -39 119 -6 190 39 86 51 159 36 233 -10 47 -10 72 -1 104 20 77 16 138 -11
167 -25 27 -26 38 -28 221 0 31 -12 89 -30 140 -25 76 -30 107 -34 233 -5 120
-11 166 -37 265 -32 119 -32 121 -21 245 11 137 21 171 105 366 61 142 70 198
38 227 -25 22 -44 21 -76 -4z m54 -56 c0 -14 -29 -94 -65 -177 -79 -187 -92
-234 -100 -378 -6 -106 -5 -120 25 -233 26 -99 32 -145 37 -265 4 -125 9 -157
34 -232 18 -54 29 -107 29 -140 -1 -190 -2 -182 26 -223 24 -36 26 -44 19
-100 -8 -58 -8 -89 -4 -225 2 -53 -3 -77 -26 -130 -40 -89 -40 -163 -2 -245
26 -56 28 -66 22 -145 l-6 -85 41 -60 c38 -55 41 -64 36 -105 -4 -25 -9 -78
-13 -117 -6 -72 -5 -73 36 -141 27 -44 43 -84 46 -115 3 -26 7 -68 10 -94 l4
-48 -14 33 c-16 38 -36 41 -58 10 -14 -22 -15 -20 -10 34 8 81 0 103 -55 139
-67 45 -72 54 -72 130 0 66 -1 69 -35 94 -19 15 -37 34 -40 44 -3 9 3 52 12
96 23 113 22 136 -14 181 -76 97 -103 188 -103 350 0 86 -5 134 -16 165 -27
75 -30 189 -7 256 39 111 63 200 63 230 0 30 -37 90 -79 127 -18 17 -21 30
-21 108 0 92 -10 128 -35 128 -52 0 -113 -259 -92 -388 13 -82 -9 -157 -70
-238 -72 -96 -76 -108 -84 -239 -6 -110 -10 -126 -43 -196 -40 -83 -56 -158
-56 -266 0 -64 -2 -73 -18 -73 -41 0 -60 43 -72 155 -9 86 -25 110 -83 122
-47 9 -60 42 -53 126 5 47 3 83 -4 102 -7 17 -16 57 -20 91 -4 33 -21 91 -38
130 -17 40 -35 104 -41 154 -16 116 -27 146 -63 171 -17 12 -37 38 -45 58 -9
20 -31 51 -50 70 l-36 35 6 98 c6 113 -4 164 -34 173 -42 14 -76 -48 -119
-214 -24 -95 -25 -145 -5 -244 15 -70 15 -80 -4 -171 -11 -54 -25 -136 -31
-184 -6 -48 -20 -132 -31 -186 -16 -79 -19 -118 -13 -192 l7 -92 -47 -45 c-77
-75 -121 -199 -97 -269 7 -18 15 -69 18 -114 5 -72 3 -86 -21 -140 -14 -32
-34 -96 -45 -140 -20 -85 -36 -124 -50 -124 -16 0 -23 91 -16 209 5 90 3 125
-8 156 -12 35 -13 50 -1 105 21 98 17 162 -12 248 -20 56 -27 96 -27 152 0 86
11 114 79 202 57 74 71 107 83 207 9 66 7 105 -5 189 -23 151 -16 243 29 372
44 128 93 317 112 425 13 77 41 162 51 152 2 -2 0 -17 -6 -32 -9 -23 -8 -32 5
-44 15 -15 19 -13 51 21 25 28 34 33 34 20 0 -21 27 -62 41 -62 20 0 48 40 63
91 8 30 33 78 55 107 40 52 61 105 61 150 0 29 33 94 77 152 72 94 79 44 20
-138 -54 -162 -67 -254 -43 -300 9 -17 22 -35 30 -39 28 -17 34 -49 29 -150
-5 -95 -4 -103 18 -134 21 -30 24 -44 21 -106 -2 -70 -1 -74 29 -100 l31 -28
-7 -100 c-8 -123 18 -387 41 -423 11 -16 14 -35 9 -61 -8 -47 15 -77 44 -61
41 21 70 159 87 410 8 116 49 283 80 323 10 13 38 47 61 76 30 37 45 67 53
109 7 31 19 73 27 92 8 19 21 71 29 114 27 141 60 228 114 301 83 113 91 130
110 241 17 101 19 106 73 172 30 37 64 86 75 108 38 75 72 92 72 37z"/>
<path d="M7665 12950 c10 -11 20 -20 23 -20 3 0 -3 9 -13 20 -10 11 -20 20
-23 20 -3 0 3 -9 13 -20z"/>
<path d="M7389 12903 l-24 -28 28 24 c15 14 27 26 27 28 0 8 -8 1 -31 -24z"/>
<path d="M7701 12874 c0 -11 3 -14 6 -6 3 7 2 16 -1 19 -3 4 -6 -2 -5 -13z"/>
<path d="M3022 12780 c-19 -12 -72 -50 -119 -85 -46 -35 -104 -72 -129 -81
-41 -15 -48 -15 -109 0 l-65 16 -53 -26 c-28 -14 -73 -46 -98 -71 -42 -40 -49
-44 -69 -33 -46 24 -85 -4 -91 -65 -5 -67 1 -85 51 -140 57 -63 61 -90 35
-200 -29 -121 -17 -164 79 -274 30 -35 58 -76 61 -92 4 -15 -1 -56 -9 -89 -18
-71 -20 -116 -6 -125 6 -3 7 -17 4 -30 -3 -13 2 -37 11 -55 10 -20 16 -52 15
-84 -4 -84 -2 -92 41 -147 37 -50 40 -58 36 -104 -4 -39 3 -73 30 -153 46
-139 51 -208 24 -290 -24 -69 -25 -63 33 -156 35 -58 45 -126 23 -159 -41 -62
-30 -150 33 -279 22 -45 40 -88 40 -94 0 -7 12 -27 27 -44 25 -30 26 -37 26
-136 l0 -104 38 -31 c38 -30 39 -33 39 -92 1 -116 65 -201 114 -151 12 12 16
36 16 100 0 81 1 85 34 121 61 69 69 104 37 157 -28 47 -34 96 -16 146 26 72
20 104 -35 195 -64 107 -68 126 -36 195 30 64 34 136 10 182 -14 27 -15 39 -4
83 12 49 11 57 -14 118 -31 79 -32 91 -5 118 l21 21 37 -34 c90 -85 101 -91
158 -84 48 6 54 4 78 -21 14 -16 37 -48 52 -73 52 -90 90 -111 128 -70 24 26
31 25 72 -10 21 -19 45 -30 63 -30 33 0 57 -26 84 -91 10 -24 24 -59 32 -76
17 -41 50 -50 109 -30 44 16 45 16 64 -11 10 -15 28 -50 40 -78 28 -65 66
-102 122 -118 40 -12 48 -20 85 -87 27 -49 55 -84 82 -104 23 -16 61 -44 84
-60 37 -26 44 -37 53 -85 20 -100 45 -153 96 -201 26 -25 60 -72 75 -103 30
-64 53 -82 84 -66 17 9 20 21 20 88 0 110 -15 189 -45 231 -13 20 -40 58 -59
85 -26 36 -37 64 -41 105 -9 74 -42 124 -103 155 -37 19 -54 36 -76 78 -34 62
-64 98 -83 98 -26 0 -61 47 -78 106 -25 86 -40 111 -94 149 -38 27 -56 51 -90
120 -36 72 -51 92 -89 117 -39 25 -54 29 -89 24 -41 -5 -43 -4 -62 32 -29 58
-56 78 -85 64 -23 -10 -27 -8 -56 46 -44 78 -78 112 -111 112 -43 0 -40 22 6
52 24 15 53 45 66 69 24 43 39 52 111 64 73 12 137 96 160 210 7 38 18 59 34
70 28 18 47 80 38 124 -5 26 -1 39 23 69 59 73 66 97 61 199 -4 61 0 114 8
151 17 71 11 104 -29 149 -32 36 -32 38 -32 145 l0 109 -43 41 c-46 42 -57 44
-158 23 -27 -6 -32 -4 -37 17 -4 12 -7 35 -7 51 0 15 -9 36 -21 48 -18 18 -28
20 -77 14 -52 -6 -61 -4 -107 26 -27 17 -81 47 -120 65 -38 18 -90 45 -115 59
-60 34 -186 36 -238 5z m300 -84 c67 -35 144 -76 171 -91 39 -22 57 -26 105
-23 l57 3 5 -47 c10 -80 50 -104 127 -76 46 17 84 2 105 -42 15 -29 17 -50 12
-126 l-7 -92 38 -37 37 -38 -7 -66 c-4 -36 -6 -112 -5 -168 1 -110 -4 -128
-59 -197 -27 -33 -30 -45 -30 -99 1 -54 -2 -63 -29 -88 -21 -19 -32 -42 -37
-71 -11 -73 -60 -163 -99 -182 -19 -9 -44 -16 -55 -16 -45 0 -90 -28 -111 -69
-11 -23 -37 -52 -58 -65 -20 -13 -45 -33 -55 -44 -18 -20 -18 -21 4 -51 17
-24 31 -31 56 -31 36 0 52 -20 107 -128 28 -55 47 -64 77 -36 17 15 20 13 45
-40 32 -63 41 -69 84 -54 62 21 111 -18 164 -132 27 -60 44 -82 80 -107 44
-31 86 -85 86 -110 0 -7 9 -37 21 -67 17 -46 28 -60 69 -85 33 -21 56 -44 71
-73 28 -56 55 -86 101 -109 48 -24 78 -64 78 -103 0 -56 20 -105 71 -173 28
-36 55 -78 60 -92 11 -28 24 -221 15 -221 -3 0 -15 22 -27 50 -12 27 -41 68
-66 91 -47 43 -85 118 -97 194 -11 63 -28 85 -107 140 -56 38 -82 64 -106 105
-63 111 -66 114 -106 122 -63 13 -76 25 -117 112 -21 45 -48 91 -60 101 -20
18 -22 18 -77 0 -54 -19 -56 -19 -69 0 -8 10 -14 25 -14 32 0 20 -49 115 -73
141 -12 13 -32 22 -50 22 -18 0 -42 11 -64 30 -39 35 -70 38 -105 10 -30 -23
-32 -21 -86 65 -17 28 -45 63 -61 79 -28 26 -33 28 -84 22 l-54 -7 -67 60
c-36 34 -74 61 -82 61 -27 0 -84 -65 -84 -95 0 -15 12 -56 26 -91 24 -62 25
-67 11 -108 -14 -40 -13 -47 4 -86 26 -57 24 -104 -6 -168 -14 -30 -25 -64
-25 -77 0 -31 24 -87 71 -160 43 -69 47 -92 23 -156 -19 -54 -12 -118 17 -166
27 -43 21 -67 -30 -125 -40 -45 -40 -46 -43 -134 l-3 -89 -20 30 c-15 22 -20
46 -21 104 0 74 -1 74 -39 107 l-39 33 -2 101 c-1 88 -4 104 -23 124 -11 12
-28 44 -37 72 -10 27 -25 60 -35 74 -22 33 -59 141 -59 175 0 15 12 51 26 81
25 53 25 55 10 108 -9 29 -31 76 -50 103 l-34 50 20 59 c27 79 20 171 -22 295
-26 75 -31 103 -27 146 6 54 -2 72 -64 152 -15 19 -19 39 -18 96 1 44 -4 83
-13 101 -8 16 -13 37 -10 48 2 10 -2 29 -9 43 -10 18 -10 33 -1 71 33 133 26
162 -60 258 -77 85 -85 109 -68 198 7 39 15 99 18 133 l4 61 -51 56 c-47 52
-51 60 -51 106 0 27 4 51 9 54 4 3 22 0 39 -6 29 -11 33 -10 81 35 27 26 70
57 95 69 42 20 49 21 115 8 63 -12 75 -11 116 5 26 9 90 50 143 89 129 96 127
95 204 96 62 0 74 -4 190 -64z"/>
<path d="M2968 12273 l-73 -55 -67 5 c-83 7 -106 -7 -118 -73 -9 -47 0 -83 28
-113 13 -14 15 -36 13 -107 -2 -83 -1 -91 21 -112 54 -52 69 -98 47 -139 -15
-30 6 -85 42 -106 36 -21 39 -32 36 -111 -2 -60 -1 -64 30 -88 l33 -25 -20
-39 c-48 -94 -4 -166 67 -110 34 27 59 25 95 -5 41 -35 62 -32 116 19 53 49
129 86 176 86 62 0 103 66 120 191 5 33 15 54 36 74 17 16 30 33 30 38 0 5 14
22 30 37 26 25 30 35 30 85 0 40 -6 67 -22 95 l-23 39 23 23 c12 14 22 32 22
41 0 10 -27 46 -59 81 -55 59 -59 68 -54 99 6 37 -12 80 -46 111 -20 18 -23
18 -64 2 -24 -9 -52 -14 -61 -10 -9 4 -28 28 -41 55 -14 26 -30 51 -36 54 -6
4 -61 9 -124 10 l-113 4 -74 -56z m239 7 c51 0 53 -1 73 -39 22 -45 64 -81 92
-81 10 0 32 7 48 15 27 14 30 14 50 -12 16 -21 19 -35 15 -67 -6 -39 -3 -44
56 -109 l62 -68 -22 -23 c-26 -28 -27 -60 -1 -93 13 -17 20 -41 20 -70 0 -41
-6 -52 -59 -114 -49 -56 -61 -77 -66 -116 -17 -126 -38 -163 -91 -163 -43 0
-160 -53 -174 -79 -6 -12 -22 -28 -35 -37 -23 -15 -26 -15 -56 10 -37 32 -81
34 -126 6 -32 -19 -33 -19 -33 -1 0 10 8 38 19 61 22 50 18 74 -19 100 -27 19
-27 22 -22 85 l5 66 -42 38 -42 39 7 65 c6 58 4 68 -17 98 -13 19 -32 40 -43
48 -16 12 -18 24 -14 100 5 80 3 88 -21 120 -18 24 -24 43 -23 70 4 51 18 61
71 51 61 -11 99 2 173 61 61 48 65 50 113 45 28 -3 74 -6 102 -6z"/>
<path d="M8348 12653 c7 -3 16 -2 19 1 4 3 -2 6 -13 5 -11 0 -14 -3 -6 -6z"/>
<path d="M9264 12438 l-29 -33 33 29 c17 17 32 31 32 33 0 8 -8 1 -36 -29z"/>
<path d="M7005 12368 c-24 -24 -30 -33 -14 -23 23 17 65 65 56 65 -1 0 -21
-19 -42 -42z"/>
<path d="M9222 12360 c0 -14 2 -19 5 -12 2 6 2 18 0 25 -3 6 -5 1 -5 -13z"/>
<path d="M6817 12363 c-3 -4 7 -17 22 -27 l26 -20 -20 25 c-11 13 -21 25 -21
27 -1 2 -4 0 -7 -5z"/>
<path d="M6905 12320 l-40 -7 35 -1 c19 -1 42 3 50 8 16 11 14 11 -45 0z"/>
<path d="M8646 12303 c-6 -14 -5 -15 5 -6 7 7 10 15 7 18 -3 3 -9 -2 -12 -12z"/>
<path d="M9221 12294 c0 -11 3 -14 6 -6 3 7 2 16 -1 19 -3 4 -6 -2 -5 -13z"/>
<path d="M8609 12253 l-24 -28 28 24 c15 14 27 26 27 28 0 8 -8 1 -31 -24z"/>
<path d="M9230 12262 c0 -7 15 -27 33 -45 17 -18 22 -21 11 -7 -12 14 -26 34
-32 45 -6 11 -12 14 -12 7z"/>
<path d="M7402 12230 c-18 -17 -29 -30 -24 -30 5 0 21 14 37 30 37 38 30 38
-13 0z"/>
<path d="M4248 12227 c-35 -32 -42 -61 -28 -112 11 -38 9 -47 -13 -91 -13 -27
-27 -62 -31 -77 -8 -35 16 -90 49 -107 14 -7 25 -17 25 -21 0 -14 67 -49 94
-49 14 0 40 12 57 28 27 24 32 36 39 102 5 41 13 88 19 104 13 33 5 90 -15
107 -8 6 -25 9 -39 7 -24 -5 -25 -3 -25 47 0 38 -5 56 -18 68 -27 25 -84 22
-114 -6z m90 -77 c4 -66 16 -84 53 -76 32 6 40 -12 26 -59 -5 -16 -12 -63 -17
-104 -8 -76 -23 -101 -61 -101 -9 0 -39 19 -68 42 -62 51 -66 79 -21 168 30
59 30 60 14 100 -15 37 -15 42 1 66 12 18 23 24 43 22 25 -3 27 -7 30 -58z"/>
<path d="M8554 12214 c-18 -14 -18 -15 4 -4 12 6 22 13 22 15 0 8 -5 6 -26
-11z"/>
<path d="M13821 12212 c-6 -10 -7 -74 -4 -155 l6 -137 -27 -25 c-26 -24 -27
-28 -22 -103 2 -42 9 -156 14 -252 9 -156 13 -184 40 -255 19 -50 32 -111 37
-164 6 -69 12 -89 31 -108 13 -12 30 -23 38 -23 12 0 12 -8 0 -62 -8 -35 -26
-94 -41 -133 -17 -46 -28 -99 -32 -155 l-6 -85 -110 -36 c-60 -20 -120 -44
-132 -53 -27 -20 -30 -61 -6 -75 21 -11 24 -8 -49 -54 -70 -44 -136 -111 -145
-145 -4 -18 1 -38 16 -64 l22 -38 -27 -36 c-15 -19 -62 -64 -105 -100 -44 -36
-82 -76 -85 -90 -4 -13 -24 -34 -49 -49 -27 -15 -58 -47 -82 -82 -32 -48 -52
-65 -120 -103 -94 -51 -274 -199 -303 -248 -23 -37 -26 -82 -8 -100 7 -7 26
-12 44 -12 26 0 51 17 135 91 56 50 116 97 133 105 17 8 74 23 125 34 57 12
109 30 130 44 72 49 298 280 324 331 31 62 69 114 134 185 32 35 55 71 62 97
17 62 46 90 197 194 108 75 141 102 161 139 48 83 109 134 197 163 27 9 68 28
91 42 45 26 125 109 125 130 0 27 46 68 114 101 39 20 91 53 116 73 25 21 68
50 95 66 91 52 315 250 315 278 0 9 -11 24 -25 33 -24 15 -29 14 -126 -27 -70
-30 -118 -59 -153 -90 -28 -26 -78 -61 -111 -79 -33 -18 -72 -43 -87 -55 -15
-13 -53 -31 -84 -40 -31 -9 -72 -25 -92 -35 -19 -11 -60 -24 -91 -31 -46 -9
-64 -19 -100 -57 -25 -26 -41 -37 -36 -27 12 30 18 82 11 108 -3 13 -19 41
-36 62 -16 21 -30 47 -30 59 0 11 -9 35 -20 51 -17 26 -20 47 -20 160 0 149
-8 187 -49 229 -31 33 -94 183 -106 254 -9 53 -67 216 -101 285 -43 86 -72
107 -93 69z m113 -230 c19 -53 37 -114 41 -135 12 -71 86 -247 111 -264 34
-22 44 -71 44 -221 0 -119 2 -137 20 -159 11 -14 20 -35 20 -47 0 -12 16 -44
36 -71 30 -43 35 -56 31 -91 -2 -23 -15 -62 -27 -88 -19 -36 -21 -49 -12 -58
18 -18 79 18 114 67 35 48 36 49 116 69 34 8 72 22 85 30 12 8 47 22 78 31 31
8 78 31 105 51 27 19 67 43 89 54 22 11 68 44 103 75 35 30 68 55 73 55 6 0
44 15 85 34 41 19 74 31 74 26 0 -17 -211 -195 -282 -238 -39 -23 -85 -55
-104 -71 -18 -16 -69 -48 -112 -71 -92 -47 -100 -55 -139 -129 -33 -64 -92
-109 -184 -140 -75 -25 -156 -85 -189 -141 -42 -70 -60 -86 -200 -183 -138
-95 -172 -131 -190 -197 -6 -23 -36 -66 -76 -111 -36 -40 -82 -102 -102 -138
-42 -76 -292 -334 -345 -356 -18 -7 -70 -21 -117 -30 -110 -22 -138 -37 -240
-130 -117 -105 -158 -123 -130 -55 19 45 175 176 288 241 81 48 103 66 137
115 24 35 57 68 85 84 26 15 46 35 48 46 2 11 47 61 100 111 53 49 104 102
111 117 14 25 13 31 -9 71 -23 41 -23 44 -7 69 19 28 83 79 162 130 58 37 67
59 30 79 -36 18 -24 26 103 66 141 46 147 52 144 138 -3 56 2 84 26 150 57
154 72 260 39 265 -7 0 -16 2 -22 2 -26 3 -33 21 -40 97 -4 51 -18 113 -36
163 -27 71 -31 101 -40 256 -6 96 -13 205 -16 242 -4 60 -3 67 16 73 29 9 34
38 29 181 l-4 125 23 -45 c13 -26 39 -90 57 -144z"/>
<path d="M8734 12194 c-18 -14 -18 -14 6 -3 31 14 36 19 24 19 -6 0 -19 -7
-30 -16z"/>
<path d="M8896 12191 c17 -10 41 -33 53 -50 18 -24 29 -31 54 -30 32 2 32 2 4
6 -17 3 -46 22 -71 49 -23 24 -49 44 -57 44 -8 0 0 -9 17 -19z"/>
<path d="M5810 12177 c-19 -18 -34 -23 -61 -19 -33 3 -37 1 -52 -30 -13 -28
-15 -56 -10 -154 6 -133 -13 -262 -62 -404 -14 -41 -30 -104 -35 -140 -5 -36
-23 -96 -39 -135 -35 -81 -40 -144 -13 -168 32 -29 57 -20 111 39 55 60 62 55
37 -28 -8 -25 -12 -48 -10 -51 9 -9 -19 -131 -38 -167 -22 -42 -23 -73 -3 -90
8 -7 15 -24 15 -39 -1 -51 -48 -297 -69 -360 -13 -35 -25 -86 -28 -113 -5 -41
-2 -54 21 -88 15 -23 34 -40 45 -40 26 0 77 61 86 102 4 18 16 49 25 69 23 44
42 118 70 276 22 119 23 123 46 117 17 -4 30 1 50 21 27 27 54 27 54 0 0 -8
14 -29 30 -47 49 -51 88 -129 109 -217 16 -70 25 -90 59 -125 43 -44 62 -77
82 -141 7 -22 32 -74 55 -115 24 -41 47 -93 51 -115 4 -22 15 -57 25 -77 11
-21 19 -51 19 -68 0 -47 16 -70 49 -70 30 0 61 27 61 53 0 11 5 14 15 10 9 -3
25 3 35 12 34 31 27 106 -25 258 -26 77 -51 176 -60 237 -19 131 -20 133 -61
201 -23 36 -37 74 -41 109 -8 71 -40 106 -113 125 -38 10 -61 22 -75 41 -11
15 -44 59 -72 97 -29 39 -53 76 -53 82 0 6 -13 29 -30 51 -16 21 -30 49 -30
62 0 30 28 72 49 72 9 0 53 17 97 39 87 42 135 88 154 148 28 85 48 111 118
152 69 40 135 102 146 138 3 10 40 47 81 82 41 35 77 73 81 84 9 28 -19 51
-60 49 -75 -3 -186 -77 -381 -254 -37 -34 -60 -48 -81 -48 -32 0 -60 -16 -126
-72 -23 -20 -69 -48 -100 -62 l-58 -25 -6 25 c-7 27 -3 50 20 109 19 50 20
112 1 145 -8 14 -14 46 -15 72 0 26 -4 58 -9 71 -7 18 -4 42 10 87 11 36 19
91 19 131 0 61 -3 73 -25 94 -30 31 -53 31 -85 2z m58 -29 c19 -19 14 -119 -9
-193 -16 -53 -18 -73 -10 -97 6 -17 11 -51 11 -75 0 -24 7 -58 16 -75 18 -35
12 -103 -13 -152 -12 -22 -13 -46 -8 -102 4 -41 11 -77 16 -80 6 -3 24 5 42
19 18 13 53 33 78 44 26 12 64 36 85 55 61 54 86 68 121 68 26 0 47 13 102 64
166 151 288 236 341 236 22 0 17 -7 -43 -62 -38 -33 -83 -84 -101 -112 -23
-36 -51 -61 -92 -85 -90 -53 -119 -85 -155 -173 -20 -51 -41 -85 -59 -98 -38
-27 -151 -80 -171 -80 -10 0 -31 -16 -48 -35 -41 -48 -42 -95 -1 -149 17 -22
30 -45 30 -52 0 -18 146 -211 173 -228 12 -8 42 -19 67 -25 53 -12 70 -32 70
-81 0 -20 12 -59 26 -86 15 -27 35 -65 44 -84 10 -19 26 -84 34 -144 10 -69
33 -160 61 -244 35 -101 45 -146 43 -181 l-3 -46 -22 48 c-23 49 -33 56 -52
33 -8 -9 -8 -28 -1 -66 13 -68 13 -70 -5 -70 -10 0 -15 11 -15 35 0 19 -9 54
-19 77 -10 24 -24 64 -30 91 -6 26 -27 71 -46 100 -19 28 -43 77 -54 108 -28
83 -49 119 -92 165 -32 33 -41 51 -49 100 -11 68 -59 170 -103 220 -16 20 -37
49 -46 66 -24 46 -54 53 -92 21 -19 -16 -44 -27 -63 -27 -37 -1 -41 -11 -80
-219 -14 -76 -35 -156 -46 -178 -10 -23 -26 -65 -34 -94 -21 -70 -38 -84 -61
-49 -20 31 -16 69 20 183 26 82 53 220 62 317 4 48 2 66 -12 87 -16 26 -16 28
3 65 11 22 25 75 32 118 6 43 16 95 21 115 13 54 11 96 -7 113 -20 21 -39 10
-97 -54 -25 -27 -50 -50 -56 -50 -21 0 -11 62 24 146 19 46 35 100 35 118 0
19 15 83 34 143 53 168 70 277 64 412 -6 149 -5 153 35 146 26 -5 37 -1 56 19
28 29 32 31 49 14z"/>
<path d="M8670 12165 c-14 -8 -20 -14 -15 -14 6 0 21 6 35 14 14 8 21 14 15
14 -5 0 -21 -6 -35 -14z"/>
<path d="M8543 12150 c2 -9 17 -16 38 -16 31 -2 31 -1 4 3 -16 3 -34 10 -38
16 -6 8 -7 7 -4 -3z"/>
<path d="M7945 12140 c-3 -6 1 -7 9 -4 18 7 21 14 7 14 -6 0 -13 -4 -16 -10z"/>
<path d="M7079 12123 c-13 -16 -12 -17 4 -4 16 13 21 21 13 21 -2 0 -10 -8
-17 -17z"/>
<path d="M8132 12131 c26 -4 50 -10 54 -14 4 -4 -5 -20 -20 -36 -33 -35 -31
-62 9 -110 39 -45 101 -65 180 -57 57 6 71 4 114 -19 70 -35 78 -31 11 6 -50
27 -61 29 -115 24 -76 -8 -134 6 -174 44 -45 42 -50 76 -15 112 28 30 28 31
10 45 -11 8 -38 13 -60 13 l-41 -2 47 -6z"/>
<path d="M7885 12109 c-27 -13 -54 -18 -84 -15 -27 2 -39 1 -30 -5 23 -14 71
-10 117 11 23 10 42 21 42 25 0 6 3 7 -45 -16z"/>
<path d="M7653 12113 c15 -2 37 -2 50 0 12 2 0 4 -28 4 -27 0 -38 -2 -22 -4z"/>
<path d="M7560 12090 c-8 -5 -10 -10 -5 -10 6 0 17 5 25 10 8 5 11 10 5 10 -5
0 -17 -5 -25 -10z"/>
<path d="M7480 12055 c-25 -13 -40 -24 -35 -24 6 0 30 11 55 24 25 13 41 24
35 24 -5 0 -30 -11 -55 -24z"/>
<path d="M13184 12021 c-17 -10 -37 -34 -44 -52 -8 -19 -36 -74 -63 -122 -37
-66 -52 -107 -62 -165 -7 -42 -22 -103 -34 -134 -12 -32 -21 -80 -21 -107 0
-27 -9 -68 -20 -92 -13 -29 -20 -66 -20 -106 0 -68 -5 -75 -60 -80 -19 -2 -47
-12 -62 -23 -15 -11 -42 -20 -61 -20 -34 0 -77 -33 -77 -59 0 -26 48 -61 85
-61 20 0 62 -13 95 -30 33 -16 69 -30 80 -30 25 0 25 -7 0 -61 -11 -24 -20
-58 -20 -75 0 -17 -7 -48 -15 -68 -16 -38 -13 -70 12 -120 14 -26 13 -35 -3
-83 -17 -51 -17 -56 -1 -117 22 -84 21 -130 -4 -239 -38 -159 -15 -312 47
-312 41 0 92 178 115 405 14 143 21 183 39 213 20 33 22 48 18 120 -3 56 -1
92 9 114 8 20 13 70 13 128 0 109 5 113 66 65 35 -29 43 -31 114 -29 66 1 83
-2 121 -24 62 -36 112 -44 145 -22 19 12 24 22 20 40 -4 17 -1 24 13 28 10 2
27 16 36 31 16 24 16 28 2 50 -18 27 -74 56 -110 56 -13 0 -41 13 -62 30 -43
35 -97 47 -137 32 -21 -8 -28 -7 -28 2 0 7 -9 21 -20 31 -16 15 -32 17 -90 13
-39 -3 -73 -2 -75 3 -3 4 4 31 16 61 30 73 69 217 69 251 0 16 10 52 22 80 32
73 30 128 -4 164 -16 16 -28 37 -28 46 0 9 21 50 46 92 53 88 66 145 39 175
-23 25 -61 25 -101 1z m76 -41 c0 -22 -44 -114 -79 -165 -29 -42 -27 -86 5
-116 22 -21 25 -30 21 -74 -2 -27 -11 -70 -20 -95 -9 -25 -21 -73 -27 -108 -6
-35 -22 -95 -36 -135 -51 -143 -52 -147 -25 -168 21 -17 34 -19 98 -13 74 7
75 7 73 -17 -5 -55 4 -60 59 -33 39 19 86 11 121 -22 15 -14 48 -28 79 -34 86
-16 102 -39 49 -66 -39 -20 -51 -35 -38 -48 37 -37 -30 -28 -105 14 -44 24
-58 27 -117 22 -63 -4 -70 -2 -110 27 -49 36 -78 39 -104 10 -16 -17 -18 -34
-16 -109 2 -62 -1 -99 -12 -124 -11 -28 -14 -57 -9 -115 5 -71 3 -83 -17 -116
-16 -27 -25 -62 -31 -124 -23 -237 -30 -282 -53 -350 -14 -41 -26 -84 -26 -95
0 -15 -3 -17 -12 -8 -22 22 -21 160 1 255 25 105 27 187 5 250 -15 43 -15 51
1 102 10 30 15 62 12 72 -3 10 -12 36 -20 58 -13 35 -13 45 -1 74 8 18 14 47
14 63 0 16 11 55 24 87 34 78 19 123 -35 106 -10 -3 -44 7 -78 25 -33 16 -76
30 -94 30 -34 0 -64 20 -50 33 3 4 22 7 41 7 19 0 45 9 59 20 16 12 41 20 64
20 26 0 47 8 66 24 25 22 27 29 26 86 -2 42 4 79 17 109 10 25 21 75 24 111 2
36 13 86 24 110 10 25 24 77 30 117 8 56 21 92 61 162 28 50 51 95 51 101 0 6
11 22 25 35 30 31 65 33 65 5z"/>
<path d="M7378 12013 c7 -3 16 -2 19 1 4 3 -2 6 -13 5 -11 0 -14 -3 -6 -6z"/>
<path d="M7318 12003 c6 -2 18 -2 25 0 6 3 1 5 -13 5 -14 0 -19 -2 -12 -5z"/>
<path d="M7253 11993 c9 -2 23 -2 30 0 6 3 -1 5 -18 5 -16 0 -22 -2 -12 -5z"/>
<path d="M7208 11983 c7 -3 16 -2 19 1 4 3 -2 6 -13 5 -11 0 -14 -3 -6 -6z"/>
<path d="M7148 11964 c-39 -21 -35 -28 5 -8 37 19 44 24 31 24 -5 -1 -21 -8
-36 -16z"/>
<path d="M7605 11910 c66 -4 169 -8 228 -9 71 -1 117 -6 135 -15 39 -20 86
-74 112 -126 29 -59 68 -110 83 -110 7 0 4 5 -6 11 -9 5 -26 27 -36 48 l-20
38 38 21 c45 26 66 48 53 56 -6 3 -12 0 -15 -8 -7 -18 -67 -60 -67 -47 0 5 9
12 19 16 11 3 22 13 25 22 5 13 1 15 -30 10 -25 -4 -34 -3 -27 4 5 5 20 11 31
12 39 3 7 16 -48 21 -36 3 -59 10 -70 23 -9 10 -22 20 -30 22 -24 7 -297 19
-400 18 l-95 -1 120 -6z m456 -77 c13 -16 12 -17 -3 -4 -17 13 -22 21 -14 21
2 0 10 -8 17 -17z"/>
<path d="M8130 11911 c-35 -9 -66 -28 -58 -37 9 -8 63 13 79 32 6 8 10 13 8
13 -2 -1 -15 -4 -29 -8z"/>
<path d="M7396 11879 c-25 -17 -74 -65 -108 -106 -40 -50 -75 -82 -102 -94
-23 -10 -35 -19 -28 -19 28 0 60 26 152 122 68 71 107 103 135 113 24 9 32 14
19 15 -11 0 -42 -14 -68 -31z"/>
<path d="M8578 11853 c7 -3 16 -2 19 1 4 3 -2 6 -13 5 -11 0 -14 -3 -6 -6z"/>
<path d="M8685 11851 c23 -4 57 -19 76 -34 61 -46 117 -64 219 -70 l95 -5
-101 13 c-114 15 -158 31 -214 75 -28 23 -47 30 -76 29 l-39 -2 40 -6z"/>
<path d="M12038 11803 c-11 -13 -17 -54 -23 -153 -3 -74 -11 -157 -16 -184 -5
-27 -9 -70 -9 -97 0 -26 -7 -76 -16 -110 -23 -91 -15 -134 35 -181 23 -20 41
-44 41 -52 0 -8 -11 -38 -25 -68 -30 -65 -31 -79 -4 -144 20 -48 21 -54 6
-117 -10 -44 -12 -80 -7 -108 5 -24 6 -76 3 -116 -7 -83 8 -113 57 -113 48 0
72 39 78 127 3 52 13 95 30 133 22 50 24 68 25 195 0 118 1 127 6 60 7 -87 12
-98 52 -132 15 -13 49 -56 75 -95 27 -40 66 -92 86 -115 35 -40 38 -47 38
-105 0 -41 9 -87 25 -133 13 -38 25 -80 25 -93 0 -35 26 -89 56 -117 36 -33
77 -33 103 1 26 33 20 83 -21 169 -26 56 -28 69 -28 185 0 134 -8 165 -64 247
-21 30 -26 50 -26 98 0 73 -29 126 -103 191 -26 23 -47 49 -47 57 0 9 23 27
53 42 28 15 61 35 73 46 11 10 43 26 71 34 60 18 126 78 143 131 18 53 4 117
-36 169 -19 25 -34 49 -34 54 0 4 -9 20 -20 34 -20 25 -20 28 -5 56 20 41 20
45 -16 86 -30 34 -34 35 -99 35 -46 0 -82 6 -113 20 -33 15 -52 18 -69 11 -29
-11 -132 -120 -154 -163 -14 -27 -18 -29 -26 -15 -5 9 -12 55 -15 102 -7 97
-29 145 -66 145 -13 0 -31 -8 -39 -17z m64 -126 c4 -45 10 -104 14 -132 13
-94 41 -99 84 -16 28 56 116 167 145 184 8 4 30 -1 52 -13 27 -14 57 -20 105
-20 55 0 72 -4 88 -20 19 -19 19 -21 3 -55 -13 -28 -14 -39 -5 -57 23 -44 54
-93 77 -119 26 -31 39 -97 26 -131 -18 -48 -61 -87 -113 -103 -28 -8 -65 -25
-82 -38 -17 -13 -54 -36 -83 -50 -57 -29 -57 -30 -67 -70 -6 -24 -2 -33 25
-55 105 -89 134 -135 125 -202 -5 -40 -2 -52 25 -95 63 -99 70 -123 68 -255
-1 -114 1 -123 29 -184 27 -58 36 -95 33 -133 -2 -22 -39 -14 -60 13 -11 14
-23 42 -26 63 -3 20 -17 70 -30 111 -13 43 -21 88 -18 106 8 48 -14 107 -55
155 -21 24 -56 71 -77 103 -22 33 -59 80 -82 104 l-43 44 0 85 c0 122 -28 159
-70 91 -17 -29 -20 -51 -20 -170 0 -125 -2 -143 -25 -194 -16 -37 -25 -76 -26
-113 -1 -77 -11 -105 -36 -109 -20 -3 -20 0 -18 140 1 79 5 164 10 189 6 37 3
55 -14 94 -26 59 -26 59 4 120 38 77 30 132 -24 160 -40 20 -48 63 -26 146 9
35 25 168 35 294 10 127 18 232 19 235 0 2 7 -2 13 -8 7 -7 16 -50 20 -95z"/>
<path d="M12322 11485 c-12 -9 -31 -33 -41 -53 -11 -20 -33 -47 -50 -60 -35
-26 -42 -70 -14 -93 9 -8 31 -38 50 -66 18 -29 41 -53 49 -53 25 0 70 37 95
76 19 31 21 44 14 97 l-7 62 39 32 c32 27 36 35 27 50 -16 25 -129 30 -162 8z
m81 -51 c-24 -24 -25 -30 -19 -93 6 -66 5 -69 -28 -107 l-33 -38 -16 29 c-8
17 -27 41 -41 54 -31 29 -34 57 -6 64 11 3 28 19 37 37 37 67 52 80 93 80 l39
0 -26 -26z"/>
<path d="M8270 11685 c-25 -13 -41 -24 -37 -25 11 0 87 39 87 45 0 7 0 7 -50
-20z"/>
<path d="M8660 11675 c13 -14 26 -25 28 -25 3 0 -5 11 -18 25 -13 14 -26 25
-28 25 -3 0 5 -11 18 -25z"/>
<path d="M4323 11641 c-17 -11 -39 -18 -50 -15 -36 9 -48 -12 -55 -98 -4 -46
-10 -104 -14 -129 -6 -43 -4 -48 20 -64 33 -22 33 -36 -5 -134 -35 -89 -34
-112 8 -162 25 -29 27 -37 23 -103 -7 -130 7 -287 28 -308 8 -8 12 -51 12
-135 0 -135 9 -167 52 -189 62 -32 88 21 86 176 -1 84 2 102 26 155 39 84 44
150 17 203 -29 56 -27 75 14 136 48 72 46 98 -11 154 l-46 45 5 71 c2 39 11
97 18 129 11 48 11 64 -1 105 -8 26 -13 70 -12 99 2 44 -1 54 -20 67 -30 21
-56 20 -95 -3z m69 -69 c-1 -23 4 -58 13 -78 20 -47 19 -66 -5 -167 -27 -114
-18 -166 39 -218 23 -21 41 -45 41 -54 0 -9 -16 -39 -35 -68 -41 -61 -44 -99
-14 -159 26 -51 22 -87 -17 -183 -26 -63 -29 -82 -29 -182 0 -123 -11 -154
-39 -110 -13 20 -16 49 -15 145 1 93 -2 127 -13 144 -18 27 -30 135 -26 223 6
137 4 150 -24 183 -40 48 -41 63 -8 146 38 97 39 138 3 164 -25 18 -26 21 -15
65 7 25 12 71 12 101 0 51 2 56 23 56 12 0 36 9 52 20 45 30 61 22 57 -28z"/>
<path d="M7103 11653 c9 -2 23 -2 30 0 6 3 -1 5 -18 5 -16 0 -22 -2 -12 -5z"/>
<path d="M8188 11653 c6 -2 18 -2 25 0 6 3 1 5 -13 5 -14 0 -19 -2 -12 -5z"/>
<path d="M7048 11643 c7 -3 16 -2 19 1 4 3 -2 6 -13 5 -11 0 -14 -3 -6 -6z"/>
<path d="M11465 11621 c-22 -10 -65 -46 -95 -80 -67 -76 -106 -115 -159 -159
-40 -34 -64 -82 -76 -154 -3 -21 -17 -50 -30 -66 -54 -65 -58 -120 -13 -199
l32 -58 -2 -135 c-3 -126 -1 -138 18 -163 17 -22 30 -27 64 -27 28 0 52 -7 68
-19 13 -11 37 -23 51 -26 15 -4 35 -20 44 -36 23 -39 61 -53 99 -38 16 6 55
12 86 14 49 1 66 7 114 40 58 40 145 138 202 228 53 84 40 158 -45 260 -29 36
-29 69 2 135 20 43 25 70 25 133 0 47 -6 91 -15 111 -8 18 -19 51 -25 74 -21
85 -167 184 -268 184 -20 0 -55 -9 -77 -19z m161 -42 c75 -28 131 -79 144
-133 6 -22 17 -56 25 -74 24 -53 19 -160 -10 -224 -37 -79 -33 -108 25 -195
76 -113 71 -144 -52 -290 -88 -106 -147 -148 -205 -145 -23 1 -59 -4 -80 -12
-45 -16 -61 -12 -73 19 -11 28 -142 95 -186 95 -51 0 -55 14 -52 161 l3 134
-34 59 c-39 71 -38 104 8 168 18 25 35 66 41 96 13 70 34 104 84 135 22 15 68
61 101 103 63 81 124 124 176 124 16 0 54 -10 85 -21z"/>
<path d="M11410 11338 c-39 -39 -50 -66 -50 -125 0 -40 -5 -52 -41 -90 l-41
-45 4 -90 c3 -85 5 -91 32 -114 16 -14 34 -23 41 -20 16 6 37 -17 67 -74 l23
-45 65 0 c59 0 65 2 79 27 14 24 13 33 -9 103 -21 67 -22 80 -11 108 39 98 33
126 -35 172 -55 37 -62 60 -39 135 10 32 15 66 12 74 -11 28 -62 19 -97 -16z
m45 -49 c-30 -84 -8 -146 66 -185 23 -11 29 -21 29 -47 -1 -17 -7 -43 -15 -57
-20 -35 -18 -86 5 -149 12 -29 19 -58 18 -63 -2 -6 -23 -11 -47 -12 -31 -2
-45 2 -49 13 -3 9 -18 35 -34 58 -21 31 -37 44 -62 49 -40 7 -46 21 -46 110 0
55 3 64 36 100 45 49 54 73 47 118 -4 29 0 43 21 71 36 47 48 44 31 -6z"/>
<path d="M8498 11611 c-31 -25 -64 -99 -73 -166 -4 -27 -14 -62 -21 -77 -8
-15 -14 -41 -14 -58 0 -17 -11 -57 -25 -89 -13 -33 -27 -79 -31 -103 -10 -62
-16 -71 -94 -129 -38 -28 -70 -55 -70 -58 0 -3 -18 -25 -40 -49 -37 -39 -40
-46 -41 -105 -1 -34 -5 -73 -10 -87 -6 -16 -7 13 -4 81 2 58 11 125 20 148 8
24 15 60 15 80 0 20 9 74 20 121 26 115 26 204 0 230 -11 11 -27 20 -36 20
-28 0 -68 -55 -93 -126 -13 -38 -35 -90 -48 -116 -12 -26 -23 -56 -23 -68 0
-11 -4 -20 -10 -20 -5 0 -10 6 -10 14 0 27 -41 66 -70 66 -30 0 -32 2 -60 112
-7 26 -23 56 -36 69 -22 21 -67 29 -82 15 -10 -10 -21 -137 -21 -251 -1 -86
-4 -105 -24 -138 l-24 -39 -17 27 c-10 14 -22 53 -27 86 -5 32 -14 71 -20 86
-13 33 -38 194 -49 316 -8 95 -25 127 -66 127 -31 0 -78 -58 -93 -116 -26 -99
-26 -99 -57 -102 -43 -5 -59 -25 -98 -122 l-35 -87 16 -65 c15 -64 15 -66 -11
-148 -15 -46 -41 -109 -57 -141 -32 -64 -37 -119 -14 -159 8 -14 14 -48 15
-77 0 -59 19 -86 58 -81 20 2 33 18 63 74 34 63 37 74 27 101 -10 26 -8 34 21
73 17 23 31 54 31 67 0 13 9 42 20 64 17 32 24 38 38 30 36 -19 55 -52 81
-143 31 -105 81 -217 106 -238 12 -10 23 -11 43 -4 42 15 52 47 42 129 -5 39
-9 95 -9 125 l0 55 19 -24 c14 -16 20 -38 20 -75 0 -42 5 -57 24 -75 52 -49
114 6 116 102 2 89 0 126 -11 153 -5 15 -8 28 -7 30 15 14 132 -152 169 -241
15 -36 58 -85 74 -85 20 0 44 34 54 76 l9 39 1 -35 c2 -63 29 -92 122 -128
113 -44 132 -42 185 13 l43 44 7 -47 c5 -36 16 -56 44 -84 46 -47 76 -49 115
-8 39 40 37 89 -9 212 -30 83 -34 108 -40 226 -5 124 -4 139 24 247 33 127 36
159 15 195 -21 37 -18 84 11 184 26 88 26 88 7 115 -25 33 -62 38 -95 12z m65
-33 c2 -7 -6 -49 -19 -92 -28 -95 -31 -163 -7 -205 17 -29 17 -33 -15 -158
-30 -121 -32 -136 -28 -265 4 -127 7 -144 40 -232 46 -122 46 -197 2 -196 -32
1 -57 39 -75 114 -27 114 -44 122 -83 40 -37 -80 -62 -85 -178 -41 -75 28 -93
50 -86 102 4 22 9 72 12 112 l6 71 64 66 c35 36 80 76 101 89 53 33 59 43 73
112 6 33 21 80 32 105 11 25 24 68 28 95 5 28 16 77 25 110 9 33 21 76 26 96
16 63 68 112 82 77z m-1132 -100 c7 -117 42 -350 64 -428 8 -30 15 -64 15 -75
0 -11 12 -42 25 -70 22 -43 25 -64 26 -160 0 -60 4 -135 8 -165 8 -55 -1 -96
-19 -85 -17 10 -59 109 -85 196 -14 46 -30 96 -36 111 -15 36 -93 100 -112 92
-25 -9 -67 -81 -76 -129 -4 -24 -21 -58 -36 -76 -23 -29 -26 -39 -21 -76 5
-36 1 -53 -22 -93 -15 -27 -30 -50 -34 -50 -5 0 -8 24 -8 53 -1 28 -7 63 -15
77 -22 38 -18 75 14 139 50 99 84 217 76 265 -4 22 -9 56 -12 73 -3 22 4 55
22 100 32 82 41 93 69 93 39 0 57 24 77 100 11 41 30 85 41 98 24 25 38 28 39
10z m679 -211 c0 -29 -9 -90 -20 -137 -11 -47 -20 -101 -20 -121 0 -19 -7 -55
-15 -80 -8 -24 -19 -100 -24 -169 -9 -124 -16 -160 -31 -160 -4 0 -23 33 -43
73 -43 86 -88 157 -136 213 -20 23 -43 53 -53 65 -13 19 -19 21 -29 12 -13
-13 -14 -49 -6 -213 4 -73 2 -100 -10 -118 -21 -34 -43 -12 -43 45 0 28 -9 61
-25 91 -31 59 -31 80 0 141 22 44 25 64 29 211 3 90 7 165 10 167 11 12 45
-39 51 -78 4 -24 15 -63 25 -86 17 -39 22 -43 54 -43 32 0 36 -3 47 -40 7 -22
21 -47 31 -57 28 -25 49 -7 63 53 6 27 21 67 32 89 11 22 28 63 37 90 20 63
53 118 66 110 6 -3 10 -30 10 -58z"/>
<path d="M8325 10870 c-4 -6 -24 -22 -46 -36 -28 -17 -39 -31 -39 -49 0 -13
-4 -27 -10 -30 -35 -21 13 -105 60 -105 43 0 110 88 110 144 0 23 -7 52 -16
64 -16 23 -48 29 -59 12z m35 -74 c0 -23 -10 -44 -34 -72 -33 -37 -35 -38 -53
-21 -15 14 -16 21 -5 37 6 11 12 26 12 35 0 8 10 20 23 26 12 7 26 18 30 26
13 21 27 5 27 -31z"/>
<path d="M7337 11223 c-19 -33 -67 -170 -67 -193 0 -36 11 -43 45 -28 23 10
28 10 36 -5 14 -24 46 -21 60 4 9 17 8 32 -1 63 -7 23 -14 61 -16 85 -4 53
-41 101 -57 74z m29 -150 l13 -32 -32 6 c-18 3 -33 7 -35 8 -2 1 5 19 15 40
10 20 19 31 22 23 2 -7 9 -27 17 -45z"/>
<path d="M5053 11590 c-72 -36 -84 -49 -92 -97 -6 -33 -10 -37 -69 -58 -92
-33 -132 -78 -132 -145 0 -18 -13 -62 -30 -100 -17 -39 -30 -86 -30 -109 0
-31 -10 -55 -46 -108 -26 -37 -51 -82 -56 -100 -11 -42 4 -73 36 -73 23 0 23
-1 10 -37 -17 -48 -18 -119 -1 -130 6 -4 39 -10 72 -13 l60 -5 -2 -38 c-3 -42
17 -91 44 -105 11 -7 19 -30 24 -71 7 -61 29 -101 54 -101 27 0 64 43 98 115
20 42 48 87 61 100 22 22 28 23 50 14 22 -10 33 -7 93 29 61 36 73 40 115 35
62 -7 103 10 139 60 34 47 39 105 11 130 -26 23 -45 21 -80 -8 -40 -33 -60
-32 -141 12 -68 37 -69 38 -103 21 -22 -10 -40 -13 -49 -7 -25 16 -54 10 -103
-21 -92 -59 -113 -12 -46 101 58 98 60 118 15 167 -35 40 -36 41 -21 71 9 16
39 49 67 73 181 152 188 160 162 189 -12 14 -10 18 14 27 15 6 65 13 110 16
90 6 130 21 162 62 45 57 14 107 -66 107 -27 0 -67 -3 -90 -8 -34 -6 -47 -4
-71 14 -43 30 -97 27 -169 -9z m153 -31 c17 -19 26 -20 79 -14 93 10 125 9
137 -3 10 -10 6 -18 -14 -39 -28 -28 -83 -41 -173 -43 -61 0 -128 -35 -133
-68 -2 -13 3 -25 13 -28 14 -6 14 -8 -2 -26 -10 -11 -55 -49 -100 -84 -90 -70
-120 -106 -129 -154 -6 -27 -2 -37 31 -70 l38 -39 -21 -38 c-11 -21 -34 -65
-51 -97 -35 -66 -34 -88 5 -123 34 -31 58 -29 116 8 42 27 51 30 79 20 24 -8
37 -7 60 5 29 14 33 14 94 -20 75 -43 114 -45 159 -11 42 32 46 31 46 -3 0
-16 -12 -42 -29 -62 -28 -34 -31 -35 -102 -35 -69 0 -78 -3 -128 -37 -44 -30
-58 -35 -78 -27 -43 16 -94 -30 -140 -126 -53 -111 -54 -111 -69 -90 -8 10
-14 38 -14 62 0 35 -6 50 -34 81 -30 33 -34 43 -29 77 4 34 1 44 -22 65 -21
20 -35 24 -77 22 l-51 -2 6 45 c4 25 18 67 32 94 36 73 17 104 -38 61 -14 -11
-28 -20 -30 -20 -14 0 15 61 57 123 36 53 46 78 46 109 0 22 13 69 30 108 17
38 30 84 30 103 0 53 38 91 115 117 67 22 85 40 85 83 0 29 21 50 80 76 59 27
102 27 126 0z"/>
<path d="M6942 11585 c-17 -19 -41 -61 -53 -95 -17 -48 -35 -73 -93 -128 -59
-56 -82 -71 -134 -86 -59 -18 -65 -18 -97 -3 -44 21 -46 13 -3 -9 94 -49 283
78 337 226 12 33 36 76 53 95 16 19 28 35 25 35 -3 0 -19 -16 -35 -35z"/>
<path d="M8897 11543 c4 -11 3 -14 -5 -9 -15 9 -15 -11 -1 -53 6 -18 9 -34 6
-38 -14 -14 -78 -13 -106 2 -17 8 -31 13 -31 11 0 -12 59 -35 105 -41 56 -8
75 -17 125 -55 19 -15 50 -33 69 -39 55 -18 60 -12 8 9 -65 25 -74 34 -69 70
3 23 0 30 -12 30 -15 0 -16 8 -12 48 3 26 3 41 0 35 -12 -26 -22 -12 -14 17 8
28 7 30 -18 30 -25 0 -25 -1 -6 -15 19 -14 18 -14 -3 -15 -14 0 -23 6 -23 15
0 8 -4 15 -10 15 -5 0 -6 -7 -3 -17z"/>
<path d="M8793 11159 c17 -13 16 -18 -3 -90 -18 -71 -21 -152 -6 -216 3 -13
-1 -24 -10 -27 -8 -3 -14 -11 -14 -18 0 -9 3 -8 10 2 5 8 10 13 11 10 10 -55
10 -62 -7 -56 -17 6 -17 5 0 -13 25 -27 17 -42 -30 -57 l-39 -12 47 5 c39 5
58 0 105 -23 32 -16 61 -28 65 -26 4 1 5 -4 2 -12 -3 -7 7 -23 22 -35 38 -30
52 -26 16 4 -29 24 -29 25 -18 77 14 64 14 84 -2 81 -7 -2 -12 2 -12 7 0 6 7
10 15 10 10 0 14 10 13 33 -1 31 12 80 37 142 22 53 28 95 15 113 -7 9 1 4 17
-13 60 -62 66 -58 10 7 -67 77 -116 104 -202 114 -52 5 -58 5 -42 -7z"/>
<path d="M8738 11153 c7 -3 16 -2 19 1 4 3 -2 6 -13 5 -11 0 -14 -3 -6 -6z"/>
<path d="M6780 10974 c-26 -24 -43 -50 -50 -78 -27 -106 -76 -167 -151 -191
-24 -8 -36 -14 -26 -14 10 -1 33 6 52 14 34 13 35 13 25 -5 -7 -14 -6 -23 6
-35 10 -9 18 -31 20 -48 1 -18 8 -45 14 -62 7 -16 13 -59 14 -95 1 -52 4 -64
16 -62 10 2 6 -7 -10 -25 -61 -68 -59 -73 5 -11 39 36 97 82 130 101 33 20 74
50 90 68 29 32 14 25 -34 -16 -13 -11 -21 -14 -17 -7 9 15 -2 54 -14 47 -5 -3
-7 10 -6 30 3 24 0 35 -10 35 -7 0 -11 6 -9 13 3 6 7 48 9 92 2 44 8 95 12
114 5 25 4 32 -4 27 -8 -5 -10 2 -5 26 4 18 7 43 8 55 0 11 3 19 8 16 4 -2 7
3 7 11 0 9 -6 17 -12 18 -7 1 14 4 47 8 l60 7 -67 1 c-65 2 -70 0 -108 -34z"/>
<path d="M9043 10730 c0 -25 2 -35 4 -22 2 12 2 32 0 45 -2 12 -4 2 -4 -23z"/>
<path d="M6953 10650 c0 -25 2 -35 4 -22 2 12 2 32 0 45 -2 12 -4 2 -4 -23z"/>
<path d="M9042 10590 c0 -14 2 -19 5 -12 2 6 2 18 0 25 -3 6 -5 1 -5 -13z"/>
<path d="M6956 10573 c-6 -14 -5 -15 5 -6 7 7 10 15 7 18 -3 3 -9 -2 -12 -12z"/>
<path d="M9656 10570 c11 -14 33 -51 48 -83 15 -32 59 -92 98 -133 100 -109
148 -226 114 -279 -24 -37 -53 -31 -124 25 -61 47 -118 70 -141 55 -22 -13
-10 -63 31 -126 67 -104 80 -175 39 -223 -39 -44 -95 -39 -178 18 -26 18 -67
45 -90 59 l-43 27 1 -27 c1 -17 3 -21 6 -11 4 14 8 15 23 6 16 -11 17 -14 3
-35 -18 -27 -33 -30 -34 -5 0 9 -7 -3 -14 -28 -8 -25 -31 -65 -50 -88 -32 -37
-34 -42 -16 -42 11 0 43 -20 71 -45 61 -54 80 -56 163 -13 105 53 177 40 306
-57 74 -56 117 -111 131 -169 20 -77 31 -93 97 -141 61 -45 135 -132 170 -199
8 -16 19 -75 24 -132 8 -96 38 -206 59 -219 16 -10 30 33 40 126 9 96 23 123
67 140 27 10 129 -7 160 -27 12 -8 24 -14 25 -14 2 0 3 61 3 135 1 122 3 137
21 156 12 11 27 17 36 14 17 -7 119 -207 132 -259 4 -18 1 -48 -10 -81 -15
-49 -15 -58 0 -117 9 -35 16 -68 16 -71 0 -8 -74 -4 -172 8 -98 13 -67 -11 40
-30 128 -22 227 -52 278 -81 55 -32 165 -155 259 -289 89 -126 116 -166 121
-179 3 -9 -14 -24 -49 -44 -30 -17 -66 -45 -80 -63 -15 -19 -29 -29 -36 -24
-12 7 -158 202 -194 257 -9 16 -43 55 -75 88 -49 53 -67 64 -132 86 -41 14
-100 30 -130 35 -30 6 -63 12 -72 15 -12 4 -18 0 -18 -10 0 -21 25 -32 88 -40
83 -11 83 -10 60 -65 -11 -27 -33 -65 -50 -85 -24 -29 -33 -34 -44 -25 -16 13
-17 62 -5 127 10 49 4 52 -29 17 -23 -24 -23 -28 -10 -58 35 -80 4 -166 -68
-188 -47 -14 -68 -50 -41 -72 28 -24 34 -82 14 -127 -32 -71 -100 -120 -165
-120 -40 0 -57 -21 -65 -82 -8 -59 -18 -82 -48 -115 -11 -13 -19 -24 -16 -26
51 -39 609 -218 804 -258 55 -11 137 -29 183 -40 144 -33 232 -50 310 -59 68
-7 79 -12 97 -36 19 -26 145 -195 152 -203 11 -14 14 13 4 35 -11 26 -140 209
-193 274 -15 19 -69 87 -119 150 -93 116 -168 204 -247 291 -35 39 -42 52 -36
71 13 41 84 145 122 180 38 34 148 96 155 88 66 -75 348 -464 377 -520 7 -14
20 -33 29 -43 8 -10 14 -31 13 -47 -2 -15 6 -47 18 -70 19 -37 20 -48 11 -91
-16 -74 -14 -102 15 -173 17 -44 44 -84 85 -128 50 -53 59 -68 59 -100 0 -90
47 -251 100 -338 121 -202 321 -354 580 -443 151 -51 405 -88 479 -70 22 6 41
9 41 6 0 -3 -20 -28 -44 -56 -46 -55 -86 -125 -86 -153 0 -11 -5 -14 -16 -10
-9 4 -58 18 -108 33 -50 14 -116 36 -146 49 -30 12 -98 39 -150 59 -94 35
-520 244 -520 255 0 3 23 18 50 35 28 16 50 33 50 37 0 12 -3 11 -100 -37 -98
-50 -184 -77 -395 -125 -62 -15 -291 -14 -382 0 -122 19 -315 61 -453 97 -74
19 -220 57 -325 84 -104 26 -269 75 -365 109 -96 34 -183 64 -192 67 -19 6
-23 -4 -10 -23 9 -15 411 -149 502 -168 59 -13 246 -63 545 -146 l30 -8 -34
-1 c-49 -1 -182 -90 -204 -136 -28 -59 -112 -90 -198 -72 -36 7 -37 7 -88 -63
-62 -85 -94 -103 -165 -89 -61 11 -106 39 -141 87 -44 59 -50 61 -98 45 -26
-9 -59 -32 -87 -62 -32 -35 -58 -52 -89 -61 -24 -6 -70 -25 -101 -42 -77 -40
-137 -47 -170 -20 -33 27 -23 43 70 109 41 29 84 64 98 78 22 24 22 28 9 43
-8 9 -22 33 -30 53 -14 35 -81 99 -103 99 -7 0 -38 -20 -71 -44 -32 -23 -88
-53 -124 -65 -81 -27 -106 -44 -114 -79 -10 -46 -37 -70 -110 -99 l-70 -28
-46 -90 c-26 -49 -53 -104 -62 -122 -32 -65 -134 -99 -273 -90 -68 5 -96 3
-110 -7 -26 -19 -126 -38 -150 -30 -10 4 -39 22 -64 39 -25 18 -64 42 -87 54
-26 13 -49 34 -59 54 -9 17 -18 33 -19 35 -2 2 -21 -2 -43 -7 -54 -15 -87 -1
-106 43 -26 63 -107 67 -218 10 -38 -20 -67 -17 -113 11 -22 14 -50 25 -62 25
-32 0 -91 56 -102 97 -6 20 -8 55 -4 79 5 37 2 46 -20 68 -44 44 -92 33 -107
-26 -15 -55 -71 -113 -127 -132 -62 -21 -96 -20 -143 4 -22 11 -59 23 -83 26
-42 6 -44 5 -56 -25 -7 -17 -24 -42 -37 -56 l-24 -26 122 -131 c131 -138 181
-181 326 -272 101 -64 114 -82 80 -109 -52 -42 -201 -2 -334 89 -36 25 -68 38
-107 43 -47 6 -64 15 -112 57 -74 64 -116 94 -133 94 -8 0 -27 -11 -44 -25
-40 -33 -79 -32 -158 6 -48 23 -87 34 -148 39 -74 8 -90 13 -147 50 -74 48
-100 84 -116 161 -15 73 -23 86 -67 108 -43 22 -77 57 -84 87 -3 12 -1 46 3
75 11 66 -6 185 -32 228 -20 34 -49 40 -93 19 -32 -14 -39 -37 -31 -99 9 -62
-4 -79 -57 -79 -77 0 -120 32 -146 109 -7 19 -23 49 -37 67 -14 18 -25 35 -25
38 0 3 25 6 56 6 30 0 101 9 157 19 161 31 422 60 547 63 l114 2 18 -30 c10
-16 19 -33 21 -37 1 -4 29 -1 62 8 104 27 122 23 181 -40 46 -48 55 -54 76
-46 45 17 51 33 32 98 -9 32 -23 65 -31 74 -12 15 -11 19 13 38 15 11 24 21
21 21 -3 0 -41 -7 -84 -15 -43 -8 -109 -15 -148 -15 -38 -1 -106 -7 -150 -15
-167 -30 -153 -17 36 36 79 23 149 45 155 50 6 5 35 17 65 28 30 10 102 38
161 61 83 33 105 46 97 56 -11 13 -80 -8 -198 -62 -29 -13 -59 -24 -65 -24 -7
0 -30 -9 -51 -20 -43 -22 -345 -110 -460 -134 -38 -8 -146 -24 -240 -35 -93
-12 -177 -24 -185 -27 -71 -26 -621 -40 -679 -17 l-23 9 26 17 c14 10 57 44
95 77 l69 60 41 -15 c22 -8 100 -23 173 -34 112 -17 151 -19 250 -11 108 8
164 21 142 32 -5 2 -65 1 -134 -3 -98 -5 -152 -3 -250 12 -138 21 -186 32
-183 43 1 4 31 32 67 62 63 53 105 104 88 104 -12 0 -68 -43 -192 -150 -58
-49 -139 -115 -180 -146 -41 -31 -95 -75 -120 -99 -25 -23 -74 -64 -110 -90
-36 -27 -103 -81 -150 -120 -47 -39 -107 -86 -135 -105 -27 -18 -77 -59 -110
-90 -33 -32 -96 -86 -141 -121 -44 -35 -121 -100 -170 -144 -49 -44 -147 -123
-219 -174 -229 -166 -278 -203 -365 -276 -113 -95 -334 -270 -550 -435 -96
-74 -251 -195 -345 -270 -93 -75 -206 -161 -250 -192 -44 -31 -137 -101 -207
-155 -71 -54 -158 -120 -194 -148 -181 -136 -402 -314 -423 -338 -19 -24 -27
-21 -41 13 -25 60 -119 125 -249 171 -30 10 -66 19 -80 19 -24 1 -22 4 28 48
64 56 163 128 411 297 102 70 203 140 225 156 22 17 76 55 120 84 185 125 296
203 385 270 52 40 145 106 205 148 61 42 162 120 225 173 63 53 142 115 175
137 33 22 85 61 115 87 30 25 87 67 125 92 104 68 472 349 575 438 36 32 85
69 110 83 25 15 77 52 115 83 39 31 115 90 170 132 55 41 134 103 175 137 71
58 100 79 295 220 45 33 118 87 161 120 44 33 147 105 229 159 221 145 225
148 225 157 0 5 -3 9 -8 9 -8 0 -67 -30 -122 -63 l-35 -20 21 24 c29 32 64 91
64 107 0 14 -59 12 -219 -9 -41 -5 -76 -8 -78 -5 -2 2 43 31 99 64 57 33 141
93 188 134 47 41 112 89 145 108 33 19 85 54 115 79 30 24 85 64 122 88 37 24
70 48 73 53 8 13 -58 41 -150 65 -144 37 -77 43 90 8 72 -15 83 -17 370 -52
165 -20 464 -73 485 -86 5 -3 10 1 10 9 0 8 -8 20 -18 25 -26 14 -334 69 -469
83 l-118 13 190 6 c105 4 223 7 263 8 54 1 73 4 70 14 -3 8 -34 14 -86 17
l-82 5 75 44 c41 24 75 50 75 57 0 21 -10 18 -76 -22 -59 -36 -138 -75 -182
-88 -19 -7 -25 -2 -42 36 -11 24 -20 63 -20 87 0 50 16 48 -148 15 l-94 -19 6
-44 c3 -24 12 -51 19 -59 11 -14 1 -15 -88 -9 -55 4 -113 7 -130 7 l-30 0 -1
65 c0 47 -5 70 -18 84 -25 28 -49 13 -80 -47 -14 -27 -32 -55 -42 -63 -15 -12
-10 -15 52 -20 54 -4 40 -6 -63 -7 -73 -1 -135 3 -138 8 -3 5 -13 7 -23 4 -12
-4 -13 -3 -4 3 10 8 8 20 -9 58 -33 74 -36 148 -9 237 21 72 21 77 5 102 -17
26 -17 27 31 96 83 119 133 203 128 212 -3 4 -15 8 -27 8 -21 1 -21 1 4 23 16
14 29 37 34 62 5 32 21 53 80 110 56 53 78 81 89 118 19 56 20 122 5 200 -19
94 0 128 129 225 112 86 154 112 177 112 31 0 139 72 211 142 41 39 82 68 121
83 32 13 92 51 133 83 81 64 148 102 179 102 20 0 61 -43 61 -64 0 -6 -13 -30
-29 -54 -15 -24 -39 -74 -52 -112 -19 -57 -21 -71 -10 -84 19 -23 68 -20 127
8 42 19 62 39 117 115 87 117 101 126 195 124 70 -2 76 0 135 39 l62 40 121
-6 c114 -6 125 -5 169 16 l47 23 91 -32 c51 -17 119 -34 152 -38 84 -9 185
-40 219 -68 40 -32 31 -70 -20 -87 -47 -16 -162 -8 -236 15 l-58 19 -107 -34
c-86 -26 -135 -34 -243 -41 -74 -5 -144 -11 -155 -14 -12 -2 -69 -36 -129 -74
-59 -39 -132 -77 -161 -86 -45 -13 -61 -25 -104 -75 -66 -79 -98 -105 -168
-136 -32 -14 -72 -42 -89 -62 l-32 -35 50 -46 c33 -31 56 -65 72 -105 l24 -58
32 60 c44 83 109 148 183 183 116 54 197 30 197 -61 0 -44 4 -46 62 -28 36 10
43 19 78 87 62 124 100 148 208 129 64 -11 69 -10 103 12 19 13 46 44 61 69
28 50 84 95 146 116 63 22 181 29 227 13 38 -13 46 -22 78 -93 10 -23 19 -29
37 -27 13 1 33 -6 44 -17 56 -50 72 -47 160 37 48 45 62 52 99 53 79 3 112 -3
155 -27 38 -23 49 -24 111 -18 79 7 83 6 176 -71 48 -39 76 -55 97 -55 37 0
88 -22 109 -46 9 -11 22 -36 28 -56 9 -25 33 -56 77 -94 l65 -57 31 38 c46 55
114 95 162 95 l39 0 -22 24 c-15 16 -25 44 -32 92 -5 38 -13 72 -18 77 -4 4
-33 12 -63 17 -76 12 -109 31 -135 77 -18 32 -30 41 -70 51 -39 11 -60 26
-108 78 -44 47 -67 64 -86 64 -35 0 -79 36 -79 64 0 12 7 31 15 42 21 27 19
30 -26 48 -33 13 -71 16 -179 15 l-138 -2 -50 31 c-27 18 -58 42 -68 53 -18
20 -25 21 -194 14 -168 -7 -176 -6 -201 14 -15 11 -30 32 -33 47 -15 60 82
184 145 184 20 0 46 11 71 31 39 32 40 32 126 26 48 -4 113 -16 145 -27 81
-29 157 -12 157 36 0 22 -37 54 -63 54 -13 0 -43 13 -65 30 -55 39 -110 51
-201 40 -77 -8 -92 -6 -179 29 -72 29 -108 27 -187 -11 -57 -26 -83 -32 -165
-36 -96 -4 -97 -4 -118 23 -12 15 -22 37 -22 48 0 31 70 91 136 115 67 24 105
68 103 118 -1 19 -3 22 -6 9 -4 -19 -11 -20 -126 -18 -69 1 -152 -4 -190 -11
-73 -14 -73 -13 -12 28 59 39 36 31 -36 -12 -107 -65 -147 -76 -215 -62 l-59
12 -35 -43 c-87 -109 -165 -157 -272 -166 -72 -7 -104 1 -124 32 -13 20 -14
30 -4 60 7 20 10 39 7 41 -11 11 -72 -31 -121 -83 -28 -30 -66 -63 -84 -74
-17 -12 -29 -26 -26 -31 4 -6 3 -8 -3 -5 -6 4 -25 -12 -42 -33 -25 -31 -31
-48 -28 -73 l4 -32 1 36 c1 24 10 43 28 60 l27 24 -7 -64 c-3 -35 -10 -69 -15
-75 -4 -6 -14 -27 -20 -47 -15 -46 -73 -107 -119 -126 -36 -14 -35 -13 24 45
40 38 64 71 69 92 4 17 5 34 2 36 -2 3 -7 -10 -11 -29 -5 -25 -23 -49 -71 -92
-35 -32 -62 -61 -60 -65 5 -8 -115 -6 -135 3 -10 5 -25 -8 -48 -41 -18 -26
-52 -69 -76 -96 -35 -38 -48 -47 -65 -41 -11 3 -23 16 -27 29 -6 27 33 136 81
224 37 67 40 84 5 27 -30 -49 -43 -44 -20 8 11 23 19 49 19 57 0 8 -5 2 -11
-15 -17 -46 -51 -96 -94 -136 -22 -20 -90 -84 -153 -142 -98 -90 -120 -117
-156 -186 l-42 -81 29 0 c67 0 127 -103 108 -185 -9 -41 -57 -95 -84 -95 -9 0
-18 -19 -25 -50 -27 -124 -83 -181 -230 -231 -30 -11 -67 -19 -83 -19 -25 0
-28 -3 -28 -35 0 -20 -7 -50 -16 -66 -11 -23 -14 -46 -9 -97 6 -63 5 -70 -24
-115 -37 -57 -38 -64 -8 -70 12 -3 0 -3 -28 -2 -27 2 -76 4 -107 4 -54 1 -58
3 -74 33 -13 25 -15 47 -9 107 3 42 8 108 10 146 2 39 13 96 24 127 27 73 26
74 -6 81 -43 9 -96 49 -113 84 -8 18 -17 33 -20 33 -16 0 -50 -71 -50 -106 0
-21 -9 -53 -19 -70 -10 -17 -24 -64 -31 -105 -7 -41 -16 -84 -21 -96 -4 -12
-15 -59 -23 -105 -8 -46 -17 -90 -21 -99 -5 -15 9 -16 137 -13 l143 2 -145 -8
c-80 -4 -146 -7 -147 -6 -3 3 33 182 51 250 9 33 18 92 21 130 13 173 40 289
100 420 16 36 22 63 17 68 -6 6 -45 -8 -101 -36 -97 -49 -106 -52 -95 -34 4 7
3 8 -5 4 -6 -4 -9 -11 -6 -16 3 -5 -12 -14 -32 -21 -69 -22 -308 -146 -358
-186 -28 -22 -77 -58 -110 -80 -33 -23 -75 -57 -94 -76 l-33 -35 -74 96 c-41
54 -86 111 -100 129 -18 22 -33 64 -50 140 -14 59 -30 112 -35 117 -10 11 -22
-1 -84 -95 -42 -63 -46 -66 -102 -78 -49 -11 -127 -35 -463 -148 -91 -30 -358
-137 -465 -185 -60 -28 -150 -67 -200 -88 -49 -21 -155 -70 -235 -108 -166
-80 -180 -95 -190 -212 -5 -63 -6 -65 -45 -87 -22 -13 -42 -23 -46 -23 -3 0
-15 31 -27 69 -33 102 -91 143 -153 110 -16 -8 -25 -7 -37 4 -39 33 -70 29
-119 -15 -17 -16 -25 -18 -41 -9 -35 19 -59 12 -91 -24 -17 -20 -31 -40 -31
-45 0 -5 -16 -6 -35 -3 -47 8 -95 -38 -95 -91 l0 -35 -35 21 c-64 37 -110 24
-307 -84 -95 -53 -235 -132 -310 -177 l-138 -81 -120 55 c-220 101 -267 113
-329 81 -55 -29 -101 -122 -101 -205 0 -51 3 -60 32 -89 18 -17 54 -40 80 -52
27 -11 48 -24 48 -28 0 -4 -16 -16 -35 -26 -55 -30 -58 -53 -51 -353 7 -255
12 -303 36 -318 23 -14 185 -54 246 -60 61 -7 68 -6 137 30 39 21 89 49 110
62 51 32 229 130 292 161 28 13 82 43 120 66 39 24 115 69 170 102 252 148
344 223 365 299 13 45 13 45 57 45 38 0 69 14 204 91 92 53 170 104 182 120
20 28 24 29 102 29 202 0 300 76 254 197 -5 15 -16 31 -22 36 -8 6 -9 10 -1
13 6 3 46 27 90 55 43 28 172 97 285 154 114 57 228 118 255 134 26 17 52 31
57 31 5 0 5 -50 1 -114 -4 -71 -3 -126 4 -147 6 -19 13 -54 17 -79 3 -29 24
-77 55 -130 28 -46 48 -85 46 -87 -2 -3 -26 5 -53 16 -26 11 -85 32 -130 46
-45 14 -104 41 -132 59 -66 45 -76 34 -50 -59 34 -125 81 -226 141 -306 l59
-78 -20 -38 c-34 -68 -43 -118 -31 -181 13 -72 64 -176 104 -209 l31 -26 0
-128 0 -128 -31 -6 c-43 -8 -108 -56 -140 -105 -37 -55 -47 -118 -33 -215 8
-65 20 -98 61 -175 27 -52 63 -113 78 -135 37 -53 130 -133 212 -181 59 -34
68 -43 73 -75 9 -52 80 -155 134 -194 57 -42 145 -76 234 -89 l68 -11 -83 -65
c-117 -92 -335 -252 -383 -280 -22 -13 -58 -40 -80 -60 -22 -20 -75 -61 -118
-90 -42 -29 -114 -85 -160 -124 -96 -85 -210 -171 -322 -246 -44 -29 -101 -70
-126 -91 -44 -37 -194 -142 -424 -297 -60 -41 -119 -82 -130 -92 -11 -10 -94
-68 -185 -129 -349 -236 -490 -348 -490 -387 0 -14 4 -33 10 -43 8 -16 -3 -27
-73 -75 -45 -31 -85 -56 -89 -56 -5 0 -8 24 -8 53 0 29 -7 105 -15 168 -9 63
-18 131 -21 151 -13 99 -77 229 -124 253 -51 26 -80 -1 -80 -73 -1 -35 -3 -32
-50 58 -57 109 -158 237 -195 246 -33 8 -75 -19 -75 -49 0 -22 20 -103 35
-142 5 -11 -27 14 -71 56 -107 103 -187 127 -216 64 -9 -21 -6 -34 19 -82 34
-67 143 -249 183 -308 33 -48 90 -144 90 -151 0 -3 -41 32 -90 79 -168 158
-398 246 -440 167 -18 -34 11 -80 89 -143 39 -31 101 -81 139 -111 126 -102
305 -294 345 -371 19 -38 31 -100 23 -121 -10 -26 -57 10 -157 118 -136 147
-209 187 -245 133 -19 -29 -13 -68 24 -140 50 -101 268 -284 387 -326 74 -26
216 -26 265 -1 34 17 217 159 351 272 36 30 96 79 134 108 l67 53 49 -20 c64
-28 127 -27 167 2 51 37 153 119 204 164 26 23 74 61 105 84 32 24 81 62 108
85 28 23 75 59 107 80 31 22 105 77 165 124 59 47 147 113 194 147 48 34 165
124 260 200 96 76 230 181 299 233 69 51 235 181 369 289 243 196 421 332 607
467 55 40 137 106 184 149 47 42 119 102 160 133 41 32 106 87 145 123 38 36
88 77 110 91 22 14 74 54 116 90 42 36 105 86 140 113 35 27 92 72 125 102
l62 53 53 -10 c30 -5 70 -11 89 -13 30 -3 29 -4 -10 -5 -25 -1 -63 3 -84 8
-52 12 -69 1 -22 -15 60 -21 87 -44 107 -93 55 -130 73 -161 108 -184 19 -13
46 -39 59 -58 28 -41 25 -83 -10 -154 -21 -44 -21 -46 -4 -91 23 -58 53 -93
128 -152 66 -50 91 -94 103 -176 5 -40 13 -53 51 -85 62 -51 76 -81 72 -153
l-3 -58 95 -82 c52 -45 128 -106 168 -137 40 -30 70 -57 68 -60 -6 -6 -197
143 -279 218 l-63 58 -26 -22 c-15 -11 -37 -28 -49 -37 -19 -13 -20 -18 -10
-35 11 -18 12 -18 6 2 -4 17 2 26 27 41 l33 19 110 -94 c60 -52 142 -117 182
-146 63 -45 72 -55 76 -89 12 -91 95 -156 225 -176 92 -15 113 -34 151 -140
18 -49 46 -107 63 -128 16 -21 39 -55 49 -75 20 -39 56 -78 72 -78 5 0 -2 9
-17 21 -15 11 -35 37 -45 57 -11 21 -33 54 -49 75 -17 21 -38 62 -48 90 -36
113 -56 147 -93 166 -20 10 -61 22 -91 26 -106 14 -178 66 -200 143 -5 20 -10
70 -10 109 0 65 -5 83 -44 165 -28 60 -50 124 -60 179 -20 106 -20 130 -2 174
13 30 13 50 1 152 -19 154 -18 188 1 208 21 20 50 12 91 -28 35 -33 43 -52 68
-171 14 -65 23 -84 50 -110 29 -27 35 -41 45 -105 9 -62 17 -83 53 -131 23
-32 54 -78 69 -103 18 -30 41 -53 68 -67 46 -23 53 -36 100 -186 32 -103 59
-143 117 -173 34 -17 42 -14 53 29 6 22 19 44 30 50 28 15 103 12 128 -6 26
-18 55 -70 47 -83 -5 -9 28 -22 90 -36 40 -9 91 -49 111 -87 18 -35 178 -199
212 -217 24 -13 57 -8 48 7 -2 4 3 8 12 9 9 1 32 5 49 9 40 8 106 -28 141 -75
13 -17 27 -29 31 -26 5 2 15 -3 22 -13 13 -15 12 -16 -3 -3 -11 8 -18 9 -18 3
0 -18 36 -32 80 -32 53 0 75 -12 130 -70 41 -43 51 -48 112 -59 160 -27 224
-76 168 -126 -12 -10 -46 -25 -78 -32 -57 -13 -57 -13 -9 -8 62 6 105 29 113
61 13 49 -56 93 -181 115 -73 13 -93 24 -128 73 l-20 29 24 -16 c56 -35 478
-60 764 -46 203 11 393 34 595 75 130 25 409 102 494 136 27 10 50 17 52 15 2
-1 -10 -15 -26 -31 -20 -18 -28 -22 -23 -10 5 13 3 16 -8 12 -116 -45 -384
-116 -554 -147 -416 -77 -797 -87 -1230 -35 l-50 6 20 -20 c18 -19 42 -23 203
-37 518 -43 1034 14 1527 169 44 14 81 26 82 26 0 0 -4 -16 -10 -36 -10 -34
-9 -38 16 -60 26 -22 111 -43 124 -30 4 3 -6 6 -20 6 -40 0 -105 29 -112 50
-11 36 31 97 92 133 32 18 58 38 58 44 0 6 4 15 9 20 6 5 6 2 1 -6 -6 -11 -4
-13 11 -6 75 31 71 31 155 1 101 -36 128 -32 228 34 51 33 88 50 108 50 17 0
65 -16 107 -36 90 -43 114 -41 179 16 33 29 46 49 50 77 9 51 56 106 119 137
29 14 46 26 39 26 -22 0 -76 -32 -114 -69 -26 -24 -43 -53 -53 -89 -13 -42
-24 -59 -57 -83 -63 -45 -78 -46 -162 -4 -105 51 -124 50 -220 -16 -71 -48
-85 -54 -130 -53 -27 0 -58 5 -69 11 -16 9 1 20 115 77 270 136 481 268 689
431 58 45 125 92 150 105 25 13 63 38 84 56 30 26 49 34 78 34 64 0 142 50
174 112 8 15 33 35 57 46 48 21 90 66 137 144 25 42 43 59 80 76 49 22 90 68
140 157 15 26 49 58 102 94 45 31 91 72 108 97 38 55 39 69 1 18 -38 -52 -74
-85 -142 -127 -42 -27 -65 -51 -87 -91 -43 -76 -90 -126 -135 -145 -29 -12
-51 -36 -95 -101 -48 -72 -65 -89 -107 -108 -36 -17 -57 -35 -73 -63 -30 -52
-88 -89 -155 -98 -40 -5 -65 -16 -98 -43 -58 -47 -98 -66 -159 -78 -28 -5 -65
-20 -83 -34 -37 -28 -152 -71 -226 -84 -43 -8 -55 -7 -72 7 -19 16 -19 16 3
60 20 39 36 51 122 98 74 40 115 70 165 122 55 57 73 70 109 76 31 5 58 20 98
55 30 26 67 51 82 55 15 3 63 24 107 45 67 32 95 54 175 137 52 54 131 123
175 153 44 30 78 59 77 63 -2 5 14 27 35 50 21 23 64 83 94 132 56 90 179 309
179 318 0 3 -9 3 -20 0 -12 -3 -32 -27 -47 -57 -34 -68 -162 -280 -218 -362
-25 -36 -43 -69 -40 -74 3 -4 -2 -13 -10 -20 -8 -7 -15 -9 -15 -4 0 4 -7 -1
-16 -12 -36 -44 -3 10 88 146 89 135 221 360 214 367 -2 2 -32 -5 -67 -16 -35
-11 -75 -21 -89 -23 -18 -2 -30 -15 -46 -48 -12 -25 -40 -66 -62 -91 -34 -38
-51 -49 -106 -63 -88 -24 -113 -56 -142 -183 -28 -123 -34 -142 -62 -174 -44
-53 -141 -118 -201 -135 -49 -14 -68 -28 -147 -108 -103 -104 -231 -190 -350
-236 -44 -17 -92 -38 -109 -47 -16 -8 -55 -28 -86 -44 -67 -34 -74 -41 -89
-99 -30 -114 -86 -189 -152 -205 -34 -9 -50 -28 -72 -86 -18 -49 -74 -122
-108 -140 -12 -6 -49 -17 -84 -24 -34 -8 -81 -25 -103 -39 -54 -34 -146 -58
-196 -51 -45 7 -170 -17 -215 -40 -34 -17 -90 -19 -140 -5 -25 7 -74 6 -175
-6 -143 -17 -277 -15 -313 5 -30 16 -36 42 -14 64 30 29 124 47 253 47 109 0
119 2 155 26 60 41 98 54 161 54 46 0 72 7 127 35 39 19 84 35 100 35 73 1
149 67 200 175 17 37 42 60 79 74 23 9 27 16 27 48 0 56 17 107 43 131 13 12
75 42 140 66 64 24 130 54 147 66 16 12 58 33 93 47 95 38 123 59 155 116 44
77 96 132 157 167 63 36 86 64 115 143 26 69 95 142 148 157 20 5 64 10 98 10
65 0 78 8 118 75 10 17 32 41 48 53 15 13 35 37 44 53 14 28 14 32 -6 64 -16
25 -20 43 -15 64 9 44 23 50 85 40 30 -5 116 -10 190 -12 166 -3 316 24 511
90 l46 16 216 -112 c119 -61 221 -111 227 -111 10 0 137 -48 255 -95 33 -14
113 -41 178 -60 l119 -36 54 30 54 29 218 -59 c119 -33 262 -71 317 -85 55
-13 152 -40 215 -59 63 -19 169 -49 235 -65 66 -16 140 -36 165 -45 25 -9 86
-27 135 -41 50 -14 174 -55 276 -90 l186 -65 13 -87 c17 -116 46 -209 75 -238
28 -28 38 -29 59 -8 12 12 16 37 16 107 0 133 7 163 39 176 35 13 318 67 455
86 104 14 156 33 156 55 0 22 -62 33 -199 34 l-143 1 42 35 c233 190 253 211
203 218 -32 5 -154 -48 -262 -112 -52 -31 -99 -56 -104 -56 -5 0 11 23 35 51
59 69 148 198 148 215 0 9 -11 14 -29 14 -37 0 -131 -69 -220 -161 -37 -38
-70 -69 -73 -69 -2 0 -1 24 3 53 13 94 11 167 -6 174 -34 13 -69 -40 -109
-163 -41 -126 -31 -123 -175 -59 -69 31 -197 80 -285 111 -89 30 -255 89 -371
130 -115 41 -264 90 -330 108 -105 29 -415 119 -454 132 -8 3 17 20 56 38 125
60 199 113 268 194 70 82 131 196 160 298 14 52 22 64 50 77 62 29 133 138
153 232 11 54 3 167 -15 200 -6 11 -11 47 -12 80 -1 78 -37 228 -68 289 l-26
48 32 25 c18 14 45 48 61 77 35 59 39 129 15 210 -8 27 -15 68 -15 90 0 56
-59 177 -113 233 -23 24 -76 63 -117 85 -41 23 -97 61 -125 85 -60 53 -254
149 -326 163 -29 6 -57 14 -63 20 -11 8 -166 41 -326 69 -87 15 -282 -7 -372
-43 -35 -14 -82 -28 -106 -32 -24 -4 -71 -24 -105 -45 -34 -22 -85 -53 -113
-69 -80 -47 -183 -147 -236 -230 -26 -41 -71 -107 -98 -147 -28 -39 -64 -96
-80 -125 -36 -65 -40 -56 -5 12 22 44 25 62 25 159 0 93 3 112 19 132 25 30
48 19 77 -37 l20 -40 30 49 c34 57 163 188 211 214 18 9 33 23 33 31 0 22 -28
80 -55 116 -19 25 -33 67 -51 152 -14 66 -38 146 -53 179 -35 73 -39 91 -51
210 -12 132 -36 174 -110 198 -171 55 -193 72 -244 195 -20 49 -44 96 -54 105
-9 8 -47 27 -85 42 -74 30 -110 65 -152 149 -29 58 -32 108 -8 131 14 15 29
16 100 10 71 -6 84 -5 89 9 9 22 -101 238 -129 255 -19 12 -19 10 4 -15 55
-60 44 -75 -36 -53 -33 9 -41 9 -49 -4 -9 -14 -11 -14 -23 1 -11 15 -14 15
-23 2 -8 -13 -10 -13 -10 0 0 10 -3 11 -11 3 -6 -6 -18 -9 -25 -6 -8 3 -18 -6
-26 -24 -7 -15 -17 -31 -21 -34 -5 -4 -8 -41 -5 -82 3 -62 1 -74 -10 -65 -11
9 -13 6 -11 -13 1 -13 1 -35 0 -49 -2 -24 -2 -24 -13 -5 -6 10 -19 44 -29 75
-11 34 -16 41 -13 20 12 -66 45 -135 86 -177 36 -36 42 -50 50 -104 6 -47 19
-78 52 -130 36 -57 44 -79 49 -135 9 -96 -18 -134 -73 -104 -26 14 -87 118
-114 195 -17 49 -36 80 -71 115 l-49 49 -17 -29 c-24 -38 -73 -63 -116 -58
-27 3 -32 1 -27 -11 20 -44 56 -209 69 -315 8 -67 21 -126 29 -135 30 -35 47
-86 61 -186 14 -96 18 -110 59 -169 49 -72 69 -131 85 -255 15 -114 14 -157
-5 -192 -12 -25 -13 -34 -3 -47 12 -16 11 -16 -4 -1 -10 8 -32 36 -50 61 -67
96 -190 240 -226 266 -21 15 -58 36 -82 47 -24 10 -45 20 -47 21 -2 1 4 18 12
38 27 65 29 116 8 205 l-21 83 20 76 c19 72 20 79 4 134 -9 32 -20 109 -25
171 -5 61 -15 128 -21 147 -5 19 -19 73 -29 120 -17 75 -18 78 -13 28 6 -62
-6 -77 -28 -35 -7 12 -29 43 -50 68 -22 26 -39 52 -39 58 0 6 -4 11 -9 11 -11
0 -44 50 -44 67 0 7 -4 13 -9 13 -4 0 -7 3 -6 8 1 4 -14 39 -33 77 -38 74 -63
146 -73 207 -8 44 -65 105 -141 148 -80 46 -75 36 12 -22 107 -73 119 -94 128
-220 9 -130 32 -204 84 -273 23 -30 46 -66 51 -79 13 -35 5 -294 -10 -334 -17
-45 -64 -74 -96 -60 -26 12 -39 46 -49 123 -15 111 -21 124 -72 136 -39 10
-48 17 -62 50 -19 46 -46 51 -81 14 -60 -64 -127 -13 -211 159 -80 162 -78
206 7 190 50 -9 52 14 8 82 -39 61 -45 90 -31 157 8 37 6 40 -52 97 -72 72
-109 120 -122 157 l-9 28 4 -27 c2 -16 -1 -28 -5 -28 -5 0 -9 7 -9 14 0 21
-43 65 -84 87 -36 19 -61 19 -95 -2 -18 -12 -24 -10 -53 16 -26 24 -28 25 -12
5z m-3271 -868 c-3 -3 -11 0 -18 7 -9 10 -8 11 6 5 10 -3 15 -9 12 -12z m4844
-76 c10 -12 9 -14 -5 -12 -10 2 -26 -6 -36 -16 -10 -10 -23 -16 -28 -13 -6 4
-17 -1 -26 -9 -8 -9 -29 -16 -45 -16 -16 0 -32 0 -36 -1 -4 0 -9 4 -11 10 -2
6 9 11 25 11 33 0 87 31 105 59 13 21 33 16 57 -13z m563 -360 c24 -19 80 -60
125 -90 88 -59 89 -62 96 -156 3 -41 13 -70 41 -115 49 -79 70 -155 61 -214
-3 -25 -7 -117 -8 -203 -2 -128 -5 -160 -18 -173 -38 -38 -83 35 -99 158 -9
74 -33 161 -72 259 -10 26 -18 65 -18 88 0 51 -18 94 -65 156 -44 57 -122 212
-131 260 -7 36 7 64 31 64 8 0 33 -15 57 -34z m-6772 -157 c-30 -77 -37 -111
-70 -339 -11 -74 -26 -162 -34 -195 -38 -156 -55 -240 -48 -246 4 -4 30 -3 57
1 70 12 279 11 405 -1 58 -6 134 -12 170 -14 66 -4 140 -14 140 -20 0 -18
-316 -472 -418 -600 -23 -30 -39 -56 -34 -59 4 -2 93 -19 197 -36 105 -18 231
-45 280 -60 50 -16 118 -36 153 -46 34 -9 62 -19 62 -23 0 -3 -21 -19 -47 -36
-26 -16 -75 -51 -108 -78 -33 -27 -86 -62 -118 -79 -32 -17 -95 -64 -140 -104
-46 -41 -142 -109 -219 -155 -76 -46 -138 -89 -138 -96 0 -17 88 -17 228 1 56
7 102 9 102 5 0 -4 -27 -44 -60 -88 -45 -60 -77 -90 -123 -117 -34 -21 -84
-54 -112 -74 -51 -37 -80 -45 -253 -66 l-53 -7 11 27 c5 15 10 37 10 49 0 29
-46 126 -72 154 -21 23 -21 24 -4 95 9 40 21 116 27 168 5 52 20 151 33 220
14 69 28 186 31 260 16 307 -68 526 -273 711 -74 66 -141 99 -282 140 -186 54
-300 44 -499 -43 -80 -36 -109 -55 -174 -117 -42 -40 -91 -98 -108 -127 -23
-41 -47 -65 -97 -98 l-67 -44 -19 21 c-36 43 -74 133 -91 220 -15 77 -16 104
-6 209 6 67 19 153 27 191 l16 71 21 -30 c12 -16 44 -52 72 -80 27 -28 86 -88
130 -132 44 -45 83 -78 88 -73 5 5 12 64 17 132 l9 123 68 139 c46 94 88 163
131 215 34 43 81 105 103 140 22 34 44 62 48 62 3 0 15 -39 25 -87 11 -49 36
-134 57 -191 40 -104 116 -262 128 -262 3 0 39 36 79 80 41 44 101 99 135 122
34 23 82 58 107 79 44 37 272 155 340 178 19 6 69 29 110 50 41 22 76 39 77
37 1 -1 -11 -36 -27 -77z m-1187 -81 c-5 -7 -25 -33 -45 -58 -19 -25 -59 -90
-88 -145 -30 -55 -58 -103 -64 -107 -6 -4 -31 -15 -56 -24 -25 -10 -76 -31
-115 -47 l-70 -30 -30 38 c-59 75 -73 90 -80 84 -3 -4 -15 -51 -27 -105 l-21
-99 -101 -57 c-56 -32 -169 -90 -251 -129 -83 -40 -197 -102 -255 -139 -178
-113 -219 -134 -235 -120 -8 7 -33 48 -55 92 -48 96 -53 163 -19 229 19 37 32
46 167 111 81 38 179 83 218 98 39 16 123 52 185 80 120 55 347 146 464 187
252 87 440 147 479 152 5 1 4 -5 -1 -11z m292 -127 c121 -172 120 -170 99
-191 -19 -19 -19 -19 -51 43 -73 143 -98 220 -48 148z m7500 -248 c22 -33 55
-155 55 -204 0 -20 -9 -71 -20 -114 l-20 -79 21 -81 c28 -107 28 -161 1 -214
l-23 -43 97 -136 c53 -75 99 -143 102 -152 4 -9 11 2 19 30 9 33 11 36 8 11
-3 -18 -5 -48 -5 -65 l0 -31 -23 40 c-33 57 -194 284 -278 390 -90 115 -118
153 -97 137 13 -10 16 -9 22 10 3 13 6 51 6 85 0 40 9 90 25 137 21 62 25 94
25 185 0 86 3 113 16 125 19 20 43 9 69 -31z m-8010 0 c-4 -10 -11 -64 -15
-121 -4 -57 -10 -105 -12 -108 -3 -2 -25 17 -49 44 -76 83 -110 125 -105 129
5 6 169 71 180 72 4 1 5 -7 1 -16z m9604 -78 c69 -14 137 -30 151 -36 14 -7
48 -17 75 -24 l50 -13 -40 -1 c-22 -1 -72 8 -110 19 -77 23 -284 49 -385 50
-78 0 -233 -35 -356 -80 -49 -18 -107 -39 -129 -47 -22 -8 -63 -34 -90 -60
-27 -25 -69 -59 -93 -76 -67 -48 -231 -276 -287 -399 -53 -116 -90 -301 -86
-430 1 -27 -3 -48 -8 -48 -20 0 -28 57 -20 135 22 209 58 323 136 442 27 39
78 116 114 170 77 116 151 185 296 278 71 46 119 68 155 75 29 6 81 22 117 36
122 49 293 52 510 9z m-11244 -241 c41 -77 60 -104 72 -104 8 0 2 23 -18 67
-23 51 -27 68 -17 75 41 25 81 -6 107 -84 12 -34 21 -67 21 -72 0 -6 -23 -23
-50 -38 -28 -16 -50 -32 -50 -38 0 -12 2 -12 34 0 23 9 26 7 26 -15 0 -33 17
-76 41 -101 l20 -21 -36 -27 c-19 -15 -35 -31 -35 -36 0 -12 44 5 81 30 34 25
44 13 34 -38 -14 -78 -22 -84 -226 -200 -90 -51 -137 -72 -162 -72 l-34 0 7
41 c6 32 18 50 51 79 l43 37 -12 63 c-16 86 -88 192 -154 226 -43 22 -45 10
-6 -26 l33 -32 -45 26 c-25 14 -59 37 -77 51 -56 44 -55 137 1 151 30 7 65
-15 154 -100 60 -58 90 -70 59 -24 -22 33 -78 91 -110 114 l-28 20 23 34 c13
19 30 36 38 38 23 4 79 -35 98 -69 33 -59 80 -120 86 -111 7 11 -49 123 -75
151 -20 21 -12 39 26 59 27 14 53 -4 80 -54z m2367 28 c53 -17 116 -41 140
-53 49 -25 183 -151 234 -220 47 -64 98 -204 119 -325 15 -87 16 -119 7 -240
-6 -76 -20 -182 -31 -234 -11 -52 -24 -140 -29 -195 -6 -55 -18 -133 -28 -173
l-18 -72 -33 6 c-49 9 -42 -13 12 -37 55 -24 96 -88 103 -159 8 -83 -49 -171
-134 -206 -34 -14 -46 -44 -60 -152 l-7 -52 -121 -92 c-66 -51 -147 -114 -179
-140 -32 -26 -95 -73 -140 -103 -45 -31 -111 -81 -146 -112 l-64 -56 -79 6
c-111 9 -233 62 -291 127 -39 44 -91 130 -82 138 1 2 34 -6 73 -17 68 -21 136
-27 166 -15 33 12 14 24 -38 24 -124 0 -333 105 -443 224 -76 81 -160 234
-173 312 -13 75 -13 156 0 188 16 42 79 104 124 121 36 14 55 15 107 7 35 -5
68 -7 73 -4 12 7 -54 41 -81 42 -22 0 -23 4 -23 69 l0 69 31 -15 c32 -16 93
-13 113 7 7 7 -8 10 -49 10 -71 0 -95 17 -95 68 0 29 3 33 18 27 40 -17 120
-24 176 -15 33 5 61 8 63 7 1 -2 -9 -34 -22 -73 -39 -110 -31 -249 15 -274 37
-20 63 -10 109 38 54 55 112 185 93 204 -9 9 -18 -3 -37 -48 -38 -89 -45 -100
-81 -140 -61 -66 -98 -27 -91 96 7 111 66 253 157 379 52 70 60 87 36 78 -10
-4 -14 14 -19 79 -7 94 -13 109 -73 180 -49 58 -107 90 -182 100 l-49 6 10 36
c10 31 20 39 97 75 47 21 108 50 135 63 70 33 256 68 325 61 73 -7 174 -40
235 -77 46 -28 197 -138 278 -202 51 -42 90 -46 121 -15 32 32 32 50 5 123
-43 115 -256 298 -407 349 -81 28 -263 46 -347 35 -62 -8 -223 -61 -262 -86
-33 -21 -36 -17 -16 17 56 96 227 206 388 250 103 28 239 21 367 -19z m9414
-3 c16 -17 51 -43 77 -57 27 -15 63 -35 80 -44 86 -48 187 -200 187 -284 0
-21 7 -64 15 -94 20 -75 19 -116 -6 -167 -21 -44 -77 -108 -86 -99 -3 3 7 20
21 38 61 80 71 161 35 288 -11 41 -25 92 -30 112 -11 41 -142 189 -191 214
-32 17 -153 124 -140 124 5 0 21 -14 38 -31z m-2850 -31 c27 -29 75 -89 106
-133 32 -44 81 -111 109 -150 29 -38 45 -64 37 -57 -14 11 -19 6 -41 -40 -13
-29 -48 -79 -76 -111 -28 -32 -61 -77 -73 -100 -11 -23 -33 -57 -49 -77 -26
-33 -44 -91 -41 -134 2 -32 31 -53 84 -60 28 -4 60 -12 70 -17 18 -10 43 -57
35 -66 -6 -5 -169 34 -282 69 -190 58 -390 121 -394 124 -2 2 1 9 7 16 5 7 24
63 42 123 44 152 81 228 122 248 48 23 83 4 113 -63 32 -71 50 -52 98 105 14
44 35 107 48 140 17 47 22 78 21 148 -1 48 2 87 7 87 4 0 30 -24 57 -52z
m-5433 25 c-7 -2 -19 -2 -25 0 -7 3 -2 5 12 5 14 0 19 -2 13 -5z m80 0 c-7 -2
-21 -2 -30 0 -10 3 -4 5 12 5 17 0 24 -2 18 -5z m70 -10 c-7 -2 -19 -2 -25 0
-7 3 -2 5 12 5 14 0 19 -2 13 -5z m5728 -100 c13 -16 12 -17 -3 -4 -10 7 -18
15 -18 17 0 8 8 3 21 -13z m-9041 -73 l30 -60 -37 -23 c-21 -13 -54 -33 -74
-45 l-36 -22 -21 23 c-28 30 -44 76 -37 105 4 16 24 32 68 53 34 16 65 29 69
29 4 0 21 -27 38 -60z m-797 -4 c20 -14 58 -42 84 -63 41 -32 94 -62 183 -103
27 -12 60 -90 60 -141 0 -43 -3 -50 -28 -63 -34 -18 -47 -43 -63 -124 -13 -67
-24 -84 -34 -53 -7 22 -39 45 -76 54 -61 15 -182 -45 -669 -334 -405 -240
-635 -367 -642 -355 -9 16 -22 519 -13 545 3 11 26 34 51 50 l44 31 142 -65
c77 -36 147 -74 155 -85 21 -29 66 -50 111 -50 34 0 45 6 80 44 22 24 45 54
52 67 22 40 40 122 40 181 0 46 -5 62 -25 86 -33 40 -99 66 -127 51 -12 -7
-24 -7 -29 -2 -9 9 172 121 418 257 191 106 224 114 286 72z m9915 -8 c14 2
15 1 2 -7 -17 -12 -27 -7 -40 22 -11 22 -11 22 5 2 9 -11 24 -19 33 -17z
m-7342 2 c94 -12 167 -41 261 -102 141 -92 253 -228 253 -308 0 -58 -49 -53
-127 12 -58 48 -201 154 -246 181 -59 36 -202 77 -270 77 -123 0 -248 -34
-415 -111 -84 -39 -159 -68 -167 -65 -23 8 -18 51 10 84 23 28 168 123 255
167 19 10 73 31 120 46 93 31 192 37 326 19z m9079 -10 c205 -23 298 -57 477
-172 117 -76 164 -120 244 -224 68 -88 150 -222 141 -230 -14 -14 -142 64
-188 114 -47 51 -68 56 -50 10 21 -54 157 -148 237 -164 27 -5 30 -11 52 -102
12 -53 22 -106 22 -116 0 -18 -3 -17 -28 7 -40 38 -158 89 -222 94 -156 14
-286 -99 -320 -277 -17 -90 -5 -160 40 -230 37 -58 80 -92 158 -127 72 -33
124 -43 168 -33 19 4 34 5 34 1 0 -16 -42 -136 -66 -184 -36 -77 -162 -218
-231 -260 -164 -98 -255 -125 -458 -133 -119 -5 -157 -3 -255 16 -114 21 -233
57 -300 90 -95 46 -177 94 -231 135 -67 52 -185 185 -225 252 -39 66 -73 185
-86 295 -10 85 -14 98 -35 109 -37 20 -103 115 -125 179 -16 50 -18 67 -9 116
17 91 52 141 124 175 55 27 69 29 125 24 44 -5 62 -3 62 5 0 7 -9 14 -21 17
-28 8 -21 42 31 150 22 45 40 84 40 86 0 3 15 29 33 59 44 73 115 155 157 180
19 12 46 31 60 43 28 25 197 83 275 95 75 11 268 11 370 0z m-10641 -82 c20
-29 20 -77 0 -106 -25 -37 -79 -52 -187 -55 l-100 -2 -1 50 c-1 55 6 64 87
106 36 19 40 19 56 5 22 -20 38 -20 81 4 45 24 46 24 64 -2z m516 -58 c15 -11
76 -35 135 -54 111 -36 160 -61 150 -76 -11 -18 19 -61 46 -67 26 -5 27 -6 14
-36 -9 -22 -25 -35 -60 -48 -27 -10 -65 -35 -86 -55 l-37 -36 -51 63 c-27 35
-66 101 -85 147 -38 89 -68 182 -60 182 3 0 18 -9 34 -20z m-2498 -64 c331
-145 335 -148 323 -244 -12 -101 -83 -212 -137 -212 -13 0 -91 30 -173 67 -82
36 -155 66 -162 66 -7 0 -13 3 -13 7 0 3 -22 17 -50 29 -27 12 -63 35 -80 51
-26 24 -30 35 -30 79 0 62 30 130 77 177 50 51 92 47 245 -20z m4943 27 c-10
-16 -39 -55 -65 -88 -107 -136 -152 -207 -138 -216 9 -6 4 -9 -16 -9 l-28 0
28 34 c16 19 74 95 129 170 94 128 130 171 90 109z m5675 -43 c-6 -11 -13 -20
-16 -20 -2 0 0 9 6 20 6 11 13 20 16 20 2 0 0 -9 -6 -20z m749 -79 c-6 -18
-13 -30 -15 -28 -2 2 1 18 7 36 6 18 13 30 15 28 2 -2 -1 -18 -7 -36z m-10973
-66 c26 -21 29 -29 29 -82 -1 -89 -27 -162 -81 -222 -25 -28 -52 -51 -60 -51
-8 0 -31 7 -52 16 l-37 15 30 13 c35 15 89 87 110 147 18 50 22 148 6 176 -9
18 -8 20 7 16 10 -2 32 -15 48 -28z m10224 -30 c19 -19 32 -35 29 -35 -3 0
-20 16 -39 35 -19 19 -32 35 -29 35 3 0 20 -16 39 -35z m717 -27 c-2 -13 -4
-5 -4 17 -1 22 1 32 4 23 2 -10 2 -28 0 -40z m-8342 -33 c36 -14 87 -63 123
-118 24 -36 26 -49 27 -137 0 -96 -1 -98 -37 -151 -20 -30 -42 -66 -49 -81
-16 -36 -74 -58 -156 -58 -129 0 -190 38 -247 152 -29 56 -36 82 -36 129 0
131 94 255 211 278 50 10 120 4 164 -14z m7685 -10 c13 -14 21 -25 18 -25 -2
0 -15 11 -28 25 -13 14 -21 25 -18 25 2 0 15 -11 28 -25z m-5855 -35 c27 -7
27 -8 5 -8 -14 0 -36 4 -50 8 -20 6 -21 8 -5 8 11 0 34 -4 50 -8z m-3680 -25
c38 -37 33 -75 -14 -118 -47 -42 -147 -109 -286 -191 -55 -33 -131 -78 -170
-101 -38 -23 -133 -75 -210 -115 -77 -40 -151 -81 -165 -90 -14 -10 -68 -41
-119 -70 -87 -48 -99 -52 -140 -46 -65 8 -241 50 -241 57 0 3 12 11 26 18 35
16 421 237 569 326 220 132 549 318 595 336 67 27 125 25 155 -6z m9682 -110
c26 -33 62 -80 81 -105 l35 -45 -40 44 c-28 31 -42 40 -48 32 -4 -7 -35 -33
-68 -57 -56 -41 -64 -45 -101 -38 -40 6 -82 23 -60 24 7 0 15 11 18 25 4 14
27 53 51 87 61 82 65 101 29 141 -20 22 -15 19 14 -8 24 -22 64 -67 89 -100z
m-5924 118 c-7 -2 -21 -2 -30 0 -10 3 -4 5 12 5 17 0 24 -2 18 -5z m60 -10
c-7 -2 -19 -2 -25 0 -7 3 -2 5 12 5 14 0 19 -2 13 -5z m6009 -295 l25 -33 -46
5 c-41 4 -42 5 -13 8 33 3 33 4 17 28 -23 35 -12 30 17 -8z m-195 6 c-3 -3
-12 -4 -19 -1 -8 3 -5 6 6 6 11 1 17 -2 13 -5z m2642 -29 c196 -88 232 -331
74 -505 -39 -44 -106 -70 -180 -70 -49 0 -171 53 -214 94 -71 66 -99 156 -79
255 43 220 206 312 399 226z m-2542 9 c-3 -3 -12 -4 -19 -1 -8 3 -5 6 6 6 11
1 17 -2 13 -5z m-6413 -774 c-111 -86 -344 -253 -348 -248 -2 1 3 30 11 63 13
57 16 61 63 87 27 15 60 43 72 62 20 31 29 35 98 46 41 6 82 13 90 15 48 9 51
4 14 -25z m659 -217 c-24 -2 -62 -2 -85 0 -24 2 -5 4 42 4 47 0 66 -2 43 -4z
m165 0 c-10 -2 -28 -2 -40 0 -13 2 -5 4 17 4 22 1 32 -1 23 -4z m-305 -10 c-7
-2 -19 -2 -25 0 -7 3 -2 5 12 5 14 0 19 -2 13 -5z m5640 -130 c-7 -2 -19 -2
-25 0 -7 3 -2 5 12 5 14 0 19 -2 13 -5z m44 -9 c-3 -3 -12 -4 -19 -1 -8 3 -5
6 6 6 11 1 17 -2 13 -5z m40 -10 c-3 -3 -12 -4 -19 -1 -8 3 -5 6 6 6 11 1 17
-2 13 -5z m56 -11 c-7 -2 -21 -2 -30 0 -10 3 -4 5 12 5 17 0 24 -2 18 -5z
m2466 -143 c189 -56 412 -128 495 -160 83 -31 217 -78 298 -104 81 -25 189
-64 240 -85 51 -22 141 -60 201 -85 100 -42 136 -47 85 -12 -21 15 -21 17 -5
53 8 21 23 63 33 93 19 64 54 130 67 130 6 0 7 -20 3 -47 -15 -102 -19 -203
-8 -203 6 0 54 44 109 98 90 90 189 170 198 160 6 -6 -70 -115 -142 -203 -35
-42 -63 -80 -63 -86 0 -25 60 -2 188 74 87 52 220 112 228 104 3 -3 -89 -79
-226 -188 -36 -28 -66 -55 -68 -59 -2 -5 66 -8 150 -8 84 1 169 -2 188 -7 35
-8 35 -8 10 -17 -14 -5 -61 -14 -105 -19 -44 -6 -147 -23 -230 -39 -82 -16
-169 -32 -193 -35 -24 -4 -54 -17 -68 -28 -22 -20 -24 -31 -30 -149 -4 -71
-11 -128 -15 -128 -27 0 -71 136 -84 263 l-8 69 -41 17 c-121 51 -584 199
-721 231 -49 11 -162 43 -250 69 -88 27 -212 61 -275 75 -195 44 -560 150
-560 161 0 6 26 42 58 80 53 63 63 70 113 81 30 6 61 10 69 8 8 -1 170 -48
359 -104z m-582 -108 c8 -5 3 -12 -17 -19 -23 -9 -30 -8 -30 1 0 25 23 33 47
18z m-2935 -137 c22 -49 -5 -101 -105 -201 -79 -78 -98 -92 -134 -98 -32 -5
-48 -14 -73 -46 -43 -55 -85 -82 -130 -86 -21 -1 -56 -14 -78 -29 -28 -18 -59
-28 -100 -32 -52 -5 -61 -3 -80 18 -12 12 -22 30 -22 39 0 25 31 79 83 145 26
33 56 73 68 88 35 45 80 63 127 49 79 -24 108 -17 159 38 31 34 60 54 94 65
27 9 52 21 55 27 12 19 69 48 97 48 20 0 31 -7 39 -25z m1398 -149 c0 -2 -8
-10 -17 -17 -16 -13 -17 -12 -4 4 13 16 21 21 21 13z m-70 -69 c0 -2 -17 -19
-37 -38 l-38 -34 34 38 c33 34 41 42 41 34z m-3610 -343 c96 -60 224 -122 267
-130 18 -3 65 1 104 10 95 21 109 20 162 -10 79 -43 100 -38 177 44 37 40 74
72 84 72 9 0 53 -12 97 -27 75 -25 81 -26 107 -11 42 24 142 50 192 50 69 -1
239 -30 276 -48 60 -29 58 -76 -8 -143 -105 -107 -223 -166 -387 -196 -70 -12
-158 -33 -196 -45 -81 -25 -98 -24 -340 20 -202 37 -232 48 -324 118 -42 31
-90 66 -106 77 -110 71 -225 189 -225 230 0 14 21 35 35 35 6 0 44 -21 85 -46z
m-761 -139 c29 -17 88 -53 131 -81 47 -31 95 -54 121 -58 23 -4 92 -34 154
-66 61 -33 136 -68 166 -79 30 -10 82 -32 116 -50 53 -26 76 -32 155 -35 102
-5 147 -18 241 -70 89 -50 137 -65 260 -81 59 -8 120 -21 136 -30 40 -20 49
-52 22 -79 -21 -20 -31 -21 -209 -21 -207 1 -247 8 -317 57 -42 29 -47 31 -83
20 -66 -20 -89 -15 -135 27 l-42 39 -112 4 c-129 4 -141 9 -210 100 -41 54
-45 56 -110 68 -65 12 -71 15 -133 80 -36 37 -92 88 -125 113 -87 64 -136 143
-108 171 10 9 19 6 82 -29z m3791 -155 c-55 -47 -281 -204 -383 -267 -127 -78
-475 -254 -482 -243 -3 5 5 12 17 15 43 13 322 157 423 218 136 81 292 186
326 218 16 15 29 25 29 23 0 -3 6 0 13 6 18 16 81 59 87 59 3 0 -11 -13 -30
-29z m-10217 -412 c38 -30 123 -150 166 -238 66 -131 87 -194 116 -344 23
-120 36 -158 50 -144 3 3 -5 70 -19 149 -32 185 -49 326 -42 344 17 45 72 -12
109 -112 40 -110 62 -290 62 -510 -1 -106 2 -193 6 -193 12 0 21 34 26 107 5
68 8 75 39 98 18 14 44 25 59 25 34 0 80 -24 99 -52 28 -40 20 -67 -34 -115
-99 -89 -326 -265 -360 -280 -45 -20 -198 -13 -255 12 -65 28 -195 124 -263
194 -85 87 -134 185 -112 221 16 26 76 -16 205 -147 128 -129 166 -152 192
-117 21 27 10 114 -19 163 -68 115 -252 310 -388 412 -168 126 -204 165 -175
189 23 19 86 6 172 -34 178 -85 317 -219 394 -383 72 -153 90 -125 22 32 -17
39 -34 81 -38 95 -12 40 -64 140 -105 200 -45 67 -155 251 -193 322 -23 45
-25 54 -13 66 28 29 84 -3 187 -108 87 -88 99 -105 127 -178 42 -110 107 -295
126 -362 19 -64 41 -106 49 -94 10 17 -42 188 -124 409 -104 281 -128 363
-108 376 19 12 22 11 42 -3z m705 -664 c-9 -9 -21 -13 -27 -10 -20 13 -11 26
16 26 25 0 26 -1 11 -16z m152 -31 c44 -20 80 -40 80 -43 0 -3 -48 -46 -107
-94 l-106 -87 -12 35 c-17 48 -28 60 -75 81 l-40 18 61 46 c61 46 112 81 117
81 1 0 38 -17 82 -37z m170 -153 c0 -16 -7 -20 -35 -20 -19 0 -53 7 -75 16
l-40 16 42 39 43 38 33 -34 c17 -19 32 -44 32 -55z"/>
<path d="M4122 7675 c-107 -30 -184 -94 -240 -200 -24 -44 -27 -61 -26 -138 1
-76 5 -95 33 -151 54 -110 148 -166 289 -174 73 -4 92 -1 152 22 89 35 171
119 195 198 25 86 20 170 -15 243 -75 157 -239 242 -388 200z m194 -47 c65
-23 136 -97 171 -176 22 -50 25 -66 19 -130 -7 -90 -23 -128 -76 -186 -90 -97
-257 -124 -384 -62 -103 51 -157 143 -159 274 -1 56 4 76 28 120 52 96 118
148 225 178 52 15 104 9 176 -18z"/>
<path d="M4130 7389 c0 -12 -8 -23 -20 -26 -20 -5 -29 -33 -10 -33 5 0 7 -6 4
-14 -4 -11 4 -14 30 -13 25 1 38 6 42 19 3 10 14 18 25 18 22 0 25 15 4 24 -9
3 -12 12 -8 22 5 14 2 16 -15 12 -12 -4 -25 -2 -28 3 -10 16 -24 9 -24 -12z"/>
<path d="M4395 6984 c-100 -55 -230 -56 -329 -3 -45 24 -62 16 -26 -12 99 -77
318 -65 414 22 41 38 16 35 -59 -7z"/>
<path d="M4190 6829 c-95 -34 -92 -53 4 -24 62 19 156 19 201 1 45 -19 121
-100 137 -145 7 -20 12 -78 12 -130 -1 -81 1 -91 13 -75 8 11 13 47 13 98 0
96 -25 160 -86 218 -81 77 -183 97 -294 57z"/>
<path d="M3254 6791 c-77 -36 -123 -141 -104 -241 13 -67 62 -159 120 -223 73
-82 230 -193 305 -216 244 -76 452 -67 645 27 87 42 139 91 175 161 41 81 56
156 46 220 -17 103 -44 147 -111 181 -81 40 -150 30 -298 -44 -105 -53 -157
-68 -232 -68 -73 0 -104 14 -232 106 -119 85 -151 101 -223 110 -38 5 -60 2
-91 -13z m371 -177 l40 -35 -20 -37 c-23 -42 -52 -53 -72 -26 -20 27 -16 135
6 134 3 -1 24 -17 46 -36z m390 -36 c-4 -18 -12 -39 -18 -46 -15 -18 -47 -11
-64 15 -14 21 -12 23 29 41 58 27 61 27 53 -10z m-253 -24 c10 -6 -9 -66 -26
-83 -24 -24 -46 3 -46 56 l0 45 33 -7 c17 -4 35 -9 39 -11z m128 -19 c0 -14
-9 -34 -21 -46 -21 -21 -22 -21 -39 -3 -10 11 -21 29 -24 41 -6 17 -2 22 16
26 57 11 68 8 68 -18z m-237 -369 l17 -48 -24 6 c-68 17 -76 24 -65 53 22 58
47 54 72 -11z m275 -26 l22 -45 -56 -3 c-31 -2 -58 -2 -59 0 -8 8 9 59 27 78
26 28 39 23 66 -30z m-166 23 c8 -10 18 -29 21 -42 5 -22 4 -23 -34 -18 -52 7
-54 10 -39 47 14 34 30 38 52 13z m293 -23 c22 -24 21 -26 -32 -35 -46 -7 -52
0 -33 36 14 25 42 24 65 -1z"/>
<path d="M1205 7992 l-120 -69 -7 -84 c-9 -120 -9 -289 0 -289 4 0 41 20 82
44 41 25 101 59 133 78 l57 33 0 131 c0 133 -8 224 -19 224 -3 0 -60 -31 -126
-68z m107 10 c-6 -2 -47 -25 -92 -53 -83 -50 -105 -58 -98 -37 7 20 192 120
197 106 2 -7 -1 -14 -7 -16z m-197 -267 c0 -115 -3 -146 -14 -150 -12 -5 -13
13 -8 107 4 62 7 133 7 157 0 24 3 41 7 37 4 -4 7 -72 8 -151z"/>
<path d="M1546 8011 c-106 -70 -52 -232 76 -231 43 1 111 32 132 61 38 55 11
140 -54 174 -41 21 -119 19 -154 -4z m50 -21 c-15 -5 -36 -15 -45 -22 -9 -7
-6 -3 7 10 13 12 33 22 45 21 18 -1 17 -2 -7 -9z m110 -8 c12 -9 27 -27 33
-40 10 -19 8 -26 -13 -47 -14 -14 -31 -25 -38 -25 -8 0 -6 5 5 11 33 19 16 92
-26 109 -21 8 -21 9 -2 9 11 0 30 -7 41 -17z m-151 -92 c16 -17 16 -20 3 -15
-9 4 -19 13 -22 21 -7 19 -2 18 19 -6z m164 -45 c-26 -26 -105 -49 -115 -34
-3 5 -13 9 -23 9 -10 0 -28 12 -42 27 l-24 26 32 -23 c40 -29 81 -28 141 2 56
28 65 26 31 -7z m-52 19 c-3 -3 -12 -4 -19 -1 -8 3 -5 6 6 6 11 1 17 -2 13 -5z"/>
<path d="M13155 7945 c-107 -53 -169 -68 -253 -61 l-77 6 23 -22 c19 -20 33
-23 91 -22 69 0 113 13 229 65 37 17 62 35 62 44 0 21 -17 19 -75 -10z"/>
<path d="M12890 7703 c-28 -10 -69 -40 -111 -82 -81 -80 -104 -138 -101 -264
2 -97 29 -164 97 -236 67 -72 127 -95 245 -96 90 0 98 2 152 33 118 68 172
168 172 317 0 102 -11 135 -72 217 -58 79 -147 122 -256 125 -55 2 -96 -3
-126 -14z m195 -24 c109 -29 192 -115 221 -231 21 -81 12 -150 -32 -238 -68
-135 -198 -185 -364 -140 -74 20 -139 82 -180 172 -36 79 -23 236 25 309 31
47 105 108 152 125 46 16 124 18 178 3z"/>
<path d="M12830 7445 c0 -9 -6 -12 -15 -9 -17 7 -21 -11 -5 -21 6 -4 8 -11 5
-16 -4 -5 3 -9 14 -9 11 0 23 -5 26 -10 4 -6 13 -4 22 6 15 15 15 17 -1 26
-11 6 -15 16 -11 29 5 15 2 19 -14 19 -12 0 -21 -7 -21 -15z"/>
<path d="M12655 7658 c-42 -33 -93 -120 -111 -188 -12 -49 -13 -71 -4 -115 15
-73 52 -147 90 -179 48 -40 56 -31 16 19 -87 105 -106 230 -53 336 16 31 46
75 68 99 21 23 39 44 39 46 0 10 -20 2 -45 -18z"/>
<path d="M13399 6936 c34 -59 39 -100 15 -134 -27 -39 -85 -28 -152 29 -57 50
-74 31 -19 -21 40 -39 86 -60 131 -60 26 0 40 7 61 32 23 27 26 39 23 78 -5
51 -50 130 -74 130 -12 0 -9 -11 15 -54z"/>
<path d="M12716 6824 c-62 -15 -145 -58 -197 -101 -44 -37 -69 -93 -69 -155 0
-95 59 -151 204 -193 74 -21 163 -65 221 -109 74 -57 146 -79 241 -73 46 3 96
12 117 22 57 27 114 90 138 153 20 52 20 63 10 127 -15 87 -47 144 -114 196
-150 119 -379 175 -551 133z"/>
<path d="M730 7830 c0 -5 5 -10 11 -10 5 0 7 5 4 10 -3 6 -8 10 -11 10 -2 0
-4 -4 -4 -10z"/>
<path d="M665 7800 c-3 -6 1 -7 9 -4 18 7 21 14 7 14 -6 0 -13 -4 -16 -10z"/>
<path d="M452 7780 c0 -14 2 -19 5 -12 2 6 2 18 0 25 -3 6 -5 1 -5 -13z"/>
<path d="M534 7706 c11 -9 24 -16 30 -16 12 0 7 5 -24 19 -24 11 -24 11 -6 -3z"/>
<path d="M425 7651 c-7 -12 12 -24 25 -16 11 7 4 25 -10 25 -5 0 -11 -4 -15
-9z"/>
<path d="M3314 7513 c-3 -11 -16 -24 -27 -27 -21 -6 -21 -7 -4 -20 9 -7 17
-19 17 -26 0 -7 8 -10 20 -7 11 3 23 1 26 -4 8 -14 26 1 20 16 -2 7 1 16 8 18
18 7 18 57 0 57 -7 0 -16 -5 -19 -11 -5 -6 -12 -4 -21 8 -13 17 -14 17 -20 -4z"/>
<path d="M13660 7095 c0 -8 -5 -15 -10 -15 -6 0 -6 -7 2 -19 16 -26 55 -24 62
3 9 34 7 39 -14 33 -11 -3 -20 -1 -20 4 0 5 -4 9 -10 9 -5 0 -10 -7 -10 -15z"/>
<path d="M1015 3569 c-42 -47 -77 -121 -77 -165 0 -48 40 -114 69 -114 10 0 6
10 -11 33 -39 50 -42 84 -13 147 13 30 31 61 41 69 9 8 26 27 37 43 32 45 -2
36 -46 -13z"/>
<path d="M9010 10560 c8 -5 20 -10 25 -10 6 0 3 5 -5 10 -8 5 -19 10 -25 10
-5 0 -3 -5 5 -10z"/>
<path d="M7981 10447 c2 -1 13 -9 24 -17 19 -14 19 -14 6 3 -7 9 -18 17 -24
17 -6 0 -8 -1 -6 -3z"/>
<path d="M10328 10365 c-15 -20 -16 -24 -2 -29 9 -3 12 -2 9 5 -4 5 -1 17 6
25 6 8 10 16 8 18 -2 2 -12 -6 -21 -19z"/>
<path d="M6609 10273 c-13 -16 -12 -17 4 -4 16 13 21 21 13 21 -2 0 -10 -8
-17 -17z"/>
<path d="M5880 10170 c-19 -17 -62 -45 -97 -62 -34 -18 -60 -34 -58 -36 7 -7
125 61 162 94 21 18 36 33 33 33 -3 0 -21 -13 -40 -29z"/>
<path d="M11243 10085 c0 -38 2 -53 4 -32 2 20 2 52 0 70 -2 17 -4 1 -4 -38z"/>
<path d="M10660 10106 c0 -2 8 -10 18 -17 15 -13 16 -12 3 4 -13 16 -21 21
-21 13z"/>
<path d="M5944 10076 c-10 -8 -32 -12 -47 -11 -15 2 -27 -2 -27 -8 0 -5 -3 -8
-6 -4 -8 8 -65 -13 -89 -33 -18 -15 -33 -19 -87 -23 -10 -1 -18 -5 -18 -9 0
-4 -9 -8 -19 -8 -11 0 -23 -5 -26 -11 -4 -5 -12 -8 -18 -6 -7 2 -21 -3 -31
-12 -11 -9 -16 -11 -13 -5 8 13 -30 27 -38 14 -7 -11 -73 -10 -102 1 -13 5
-25 4 -28 -1 -9 -15 -20 -12 -46 9 l-24 19 40 17 c22 10 65 26 95 36 30 10 47
18 38 18 -9 1 -53 -12 -97 -29 -75 -27 -88 -29 -173 -24 -92 6 -94 5 -147 -28
-52 -31 -122 -120 -107 -135 3 -3 10 6 15 20 16 40 76 102 120 122 33 14 54
16 125 10 59 -5 86 -11 90 -21 7 -17 -6 -18 -22 -2 -10 10 -16 7 -28 -10 -9
-13 -23 -22 -32 -20 -16 3 -82 -63 -82 -82 0 -13 -42 -81 -47 -76 -2 2 8 27
22 56 30 60 26 74 -10 38 -21 -21 -24 -33 -23 -89 0 -40 -5 -76 -14 -94 -9
-18 -12 -38 -8 -50 8 -21 6 -32 -16 -82 -8 -17 -17 -46 -21 -65 -3 -18 -12
-39 -20 -46 -15 -16 -17 -32 -3 -32 6 0 10 -9 10 -21 0 -14 -5 -19 -14 -16 -8
3 -17 -1 -20 -9 -3 -8 -1 -14 4 -14 6 0 10 -9 10 -20 0 -11 -6 -20 -13 -20
-18 0 -48 -55 -41 -74 3 -9 1 -16 -5 -16 -6 0 -11 -7 -11 -15 0 -8 -4 -15 -10
-15 -5 0 -10 -4 -10 -10 0 -5 38 9 85 32 80 40 86 41 102 25 16 -15 16 -19 1
-50 -16 -34 -16 -34 7 -29 12 2 26 -1 29 -7 5 -7 28 6 64 35 31 26 67 51 80
57 12 6 38 36 57 66 64 107 126 151 211 151 52 0 147 77 183 147 37 74 73 110
124 124 23 6 59 29 87 55 26 24 78 60 116 78 38 19 82 48 98 65 38 40 27 40
-19 0 -26 -23 -35 -27 -35 -15 0 9 -4 16 -9 16 -5 0 -16 15 -24 33 -14 29 -80
97 -94 96 -3 -1 -9 4 -12 10 -5 7 -13 6 -27 -3z m-954 -795 c0 -5 -6 -14 -14
-20 -12 -10 -13 -8 -9 8 5 21 23 30 23 12z"/>
<path d="M5688 10063 c7 -3 16 -2 19 1 4 3 -2 6 -13 5 -11 0 -14 -3 -6 -6z"/>
<path d="M5588 10053 c18 -2 45 -2 60 0 15 2 0 4 -33 4 -33 0 -45 -2 -27 -4z"/>
<path d="M12151 9984 c0 -11 3 -14 6 -6 3 7 2 16 -1 19 -3 4 -6 -2 -5 -13z"/>
<path d="M12161 9934 c0 -11 3 -14 6 -6 3 7 2 16 -1 19 -3 4 -6 -2 -5 -13z"/>
<path d="M12180 9873 c0 -18 59 -92 82 -103 22 -10 22 -10 -1 7 -14 10 -37 38
-53 62 -15 25 -28 40 -28 34z"/>
<path d="M10795 9850 c10 -11 20 -20 23 -20 3 0 -3 9 -13 20 -10 11 -20 20
-23 20 -3 0 3 -9 13 -20z"/>
<path d="M4927 9773 c-21 -31 -29 -49 -19 -40 17 16 67 97 60 97 -2 0 -21 -26
-41 -57z"/>
<path d="M9077 9800 c-35 -59 16 -129 100 -137 l48 -4 -37 21 c-43 23 -65 53
-82 110 l-12 40 -17 -30z"/>
<path d="M4756 9357 c3 -10 9 -15 12 -12 3 3 0 11 -7 18 -10 9 -11 8 -5 -6z"/>
<path d="M4771 9313 c0 -12 -4 -30 -7 -40 -5 -17 -5 -17 6 0 6 10 9 28 7 40
-4 22 -4 22 -6 0z"/>
<path d="M4541 9257 c-1 -48 20 -90 54 -105 39 -18 44 -14 9 7 -40 25 -47 36
-55 91 l-6 45 -2 -38z"/>
<path d="M4728 9217 c-14 -19 -41 -41 -60 -50 -19 -10 -26 -17 -16 -17 19 0
83 53 99 81 14 28 7 23 -23 -14z"/>
<path d="M6535 9091 c-66 -38 -81 -56 -93 -114 -10 -47 -9 -49 12 -43 11 3 40
6 64 6 35 0 42 3 42 20 0 11 7 37 16 59 8 21 14 53 12 70 l-3 31 -50 -29z"/>
<path d="M4329 8973 l-24 -28 28 24 c25 23 32 31 24 31 -2 0 -14 -12 -28 -27z"/>
<path d="M8836 8918 c-42 -22 -91 -24 -183 -10 -60 10 -102 -1 -154 -40 -19
-15 -51 -29 -71 -33 -46 -9 -62 -27 -54 -61 5 -17 19 -30 42 -40 34 -14 40
-13 142 22 61 21 125 36 151 36 54 1 279 -72 327 -104 69 -47 84 -119 35 -168
l-29 -29 42 5 c48 7 98 -13 116 -45 14 -28 12 -87 -4 -119 -8 -15 -28 -40 -44
-55 l-30 -29 49 -47 49 -47 0 -72 c0 -62 -3 -73 -22 -86 -22 -16 -22 -16 8
-16 67 0 165 -98 178 -178 4 -20 3 -65 -2 -98 l-8 -62 40 5 c92 9 105 14 135
48 28 32 66 94 59 96 -2 0 -11 2 -21 4 -31 6 -57 36 -57 66 0 15 5 31 10 34
26 16 4 21 -56 13 -78 -11 -98 -1 -142 64 -23 36 -27 52 -27 112 1 137 80 262
190 299 78 27 93 23 151 -38 59 -62 86 -69 142 -35 37 23 72 88 71 135 0 17
-9 41 -19 54 -29 35 -102 26 -210 -25 -131 -61 -202 -53 -264 29 -14 19 -20
47 -24 107 -2 44 -8 80 -13 80 -5 0 -39 26 -76 58 -89 76 -100 82 -172 82 -57
0 -63 2 -112 46 -41 36 -90 67 -102 64 -1 -1 -20 -10 -41 -22z"/>
<path d="M6291 8835 c-49 -21 -90 -56 -91 -78 0 -12 51 -28 71 -22 10 3 31 33
48 66 16 32 29 58 28 58 -1 -1 -26 -12 -56 -24z"/>
<path d="M12549 8814 c-14 -31 -19 -57 -15 -78 6 -32 62 -156 70 -156 3 0 -9
30 -27 68 -38 81 -41 138 -8 182 12 17 17 30 11 30 -6 0 -20 -21 -31 -46z"/>
<path d="M12650 8835 c40 -48 43 -51 32 -30 -6 11 -21 29 -34 40 -22 19 -22
19 2 -10z"/>
<path d="M8450 8486 c-19 -7 -53 -21 -75 -31 -30 -13 -55 -16 -99 -12 -72 7
-97 -8 -145 -80 -39 -58 -39 -74 -1 -101 23 -17 30 -31 30 -55 0 -29 6 -36 59
-65 33 -18 73 -45 89 -61 39 -35 51 -94 29 -132 -15 -26 -14 -29 8 -43 35 -23
46 -50 46 -109 0 -84 3 -88 46 -66 21 11 45 19 54 19 9 0 29 10 44 22 54 42
156 34 237 -18 l38 -24 32 20 c18 11 50 20 70 20 34 0 40 4 58 39 11 22 24 42
30 46 5 3 10 10 10 15 0 6 -15 1 -32 -10 -41 -25 -64 -25 -128 0 -28 11 -76
23 -108 26 -102 11 -127 24 -279 149 -46 38 -61 91 -38 138 23 50 116 97 190
97 59 0 75 12 75 57 0 38 -40 88 -106 134 -53 36 -89 43 -134 25z"/>
<path d="M6514 8475 c-4 -8 -4 -21 -1 -27 8 -24 -12 -57 -45 -74 -58 -29 -68
-42 -56 -74 17 -50 97 -87 116 -54 5 10 27 27 48 39 49 28 70 64 82 143 l9 62
-74 0 c-56 0 -75 -4 -79 -15z"/>
<path d="M7268 8035 c5 -70 -13 -101 -63 -111 -39 -7 -59 -30 -70 -81 -6 -32
-6 -33 27 -33 46 0 72 -21 95 -77 39 -91 39 -107 -2 -152 l-37 -40 69 -32 c37
-17 82 -43 98 -58 17 -15 56 -35 87 -45 32 -9 60 -21 63 -26 3 -5 20 -6 39 -3
28 4 38 0 69 -31 40 -40 67 -45 122 -22 44 19 57 59 28 87 -17 17 -37 20 -144
23 -68 2 -137 9 -154 16 -50 19 -96 61 -116 104 -33 73 -22 125 42 207 23 29
29 47 29 85 0 47 -2 50 -78 124 -43 41 -84 85 -92 98 -14 22 -15 20 -12 -33z"/>
<path d="M8830 6945 c-27 -50 -125 -105 -187 -105 -13 0 -50 14 -83 30 -33 17
-69 30 -82 30 -12 0 -50 -19 -86 -42 -58 -37 -72 -42 -158 -52 -87 -9 -97 -8
-138 11 -24 12 -60 36 -80 53 -29 26 -37 29 -42 17 -12 -32 1 -51 43 -63 56
-17 99 -42 113 -69 7 -13 10 -51 8 -91 l-3 -70 38 13 c51 18 97 8 155 -31 62
-43 75 -47 127 -39 l45 6 0 42 c0 70 57 107 166 107 40 0 76 -7 109 -21 26
-12 50 -19 53 -16 3 2 -1 18 -8 35 -16 40 -7 82 30 134 l30 42 -15 52 c-9 29
-17 52 -19 52 -1 0 -9 -11 -16 -25z"/>
<path d="M8996 6614 c-22 -8 -56 -15 -77 -16 l-36 -1 20 -34 c14 -25 18 -45
14 -73 -6 -45 -7 -44 46 -29 64 17 93 -29 42 -69 -31 -25 -236 -76 -270 -68
-13 3 -40 20 -59 36 l-33 30 -104 -16 c-109 -16 -137 -14 -178 15 -14 9 -58
27 -97 39 -85 26 -154 73 -154 103 0 18 -7 14 -51 -25 -56 -51 -136 -81 -195
-74 -19 2 -34 0 -34 -4 0 -4 6 -8 14 -8 7 0 25 -18 40 -40 28 -42 37 -46 129
-54 74 -6 116 -31 147 -86 14 -25 52 -70 85 -101 51 -47 68 -57 108 -62 29 -4
65 -19 92 -37 78 -54 88 -55 189 -19 l89 33 113 -29 112 -29 48 32 c27 17 85
41 129 53 104 28 111 32 135 80 25 48 63 73 140 90 l57 13 12 49 c37 163 -18
211 -149 126 -35 -22 -78 -43 -95 -46 -70 -11 -145 56 -159 142 -12 73 -18 95
-24 94 -4 0 -25 -7 -46 -15z m197 -292 c64 -36 71 -100 18 -153 -54 -54 -153
-45 -214 19 -78 81 -13 168 116 157 27 -2 63 -13 80 -23z"/>
<path d="M12298 6133 c7 -3 16 -2 19 1 4 3 -2 6 -13 5 -11 0 -14 -3 -6 -6z"/>
<path d="M4974 6059 c-4 -7 -3 -10 3 -6 6 4 27 0 47 -8 34 -14 36 -18 36 -60
0 -42 5 -51 60 -110 33 -35 60 -60 60 -55 0 5 -25 34 -55 64 -52 51 -55 57
-55 104 0 45 -3 51 -27 60 -16 5 -35 13 -44 17 -10 3 -20 1 -25 -6z"/>
<path d="M12123 6027 c-11 -7 -41 -39 -66 -73 -24 -33 -90 -98 -146 -144 -56
-45 -99 -85 -97 -88 3 -2 31 18 63 45 32 27 77 64 100 81 23 18 62 62 88 97
49 70 73 88 102 79 15 -5 15 -4 3 5 -18 13 -20 13 -47 -2z"/>
<path d="M12538 5993 c-18 -21 -48 -78 -48 -90 1 -4 10 10 22 32 11 22 27 48
36 58 8 9 13 17 10 17 -3 0 -12 -8 -20 -17z"/>
<path d="M12168 5912 c-22 -60 -15 -67 7 -7 10 25 16 47 14 50 -3 2 -12 -17
-21 -43z"/>
<path d="M12440 5788 l-24 -31 27 18 c15 9 27 24 27 31 0 19 -1 18 -30 -18z"/>
<path d="M5183 5755 c0 -27 2 -38 4 -22 2 15 2 37 0 50 -2 12 -4 0 -4 -28z"/>
<path d="M12384 5744 c-18 -14 -18 -15 4 -4 12 6 22 13 22 15 0 8 -5 6 -26
-11z"/>
<path d="M12309 5693 c-22 -20 -47 -50 -55 -67 -8 -17 -9 -22 -2 -11 7 11 34
41 60 68 57 56 55 62 -3 10z"/>
<path d="M12207 5555 c-17 -21 -21 -32 -12 -29 13 5 52 64 43 64 -2 0 -15 -16
-31 -35z"/>
<path d="M12120 5500 c-8 -5 -10 -10 -5 -10 6 0 17 5 25 10 8 5 11 10 5 10 -5
0 -17 -5 -25 -10z"/>
<path d="M12025 5460 c-30 -20 -64 -59 -65 -73 0 -5 12 6 27 24 15 17 41 40
58 50 16 11 26 19 20 19 -5 0 -23 -9 -40 -20z"/>
<path d="M11950 5365 c0 -6 11 -27 25 -47 14 -20 25 -44 25 -53 0 -9 -21 -36
-47 -60 -27 -24 -66 -60 -88 -80 -22 -20 -6 -9 36 24 42 33 84 71 93 85 18 29
21 62 5 72 -6 3 -19 20 -30 38 -10 17 -19 26 -19 21z"/>
<path d="M4799 5321 c-22 -21 -39 -45 -39 -52 0 -8 8 0 18 16 24 38 43 54 79
65 26 8 26 8 4 9 -15 1 -38 -13 -62 -38z"/>
<path d="M4898 5353 c7 -3 16 -2 19 1 4 3 -2 6 -13 5 -11 0 -14 -3 -6 -6z"/>
<path d="M4959 5325 c16 -14 44 -53 60 -87 17 -34 31 -56 31 -49 0 34 -88 161
-112 161 -5 0 4 -11 21 -25z"/>
<path d="M12582 5235 c-6 -14 -8 -25 -3 -25 8 0 23 41 17 47 -1 2 -8 -8 -14
-22z"/>
<path d="M4753 5215 c0 -22 2 -30 4 -17 2 12 2 30 0 40 -3 9 -5 -1 -4 -23z"/>
<path d="M12620 5196 c0 -2 8 -10 18 -17 15 -13 16 -12 3 4 -13 16 -21 21 -21
13z"/>
<path d="M5053 5110 c0 -36 2 -50 4 -32 2 17 2 47 0 65 -2 17 -4 3 -4 -33z"/>
<path d="M4810 5050 c11 -16 26 -33 32 -36 7 -4 -1 9 -16 29 -34 44 -46 50
-16 7z"/>
<path d="M5036 5023 c-6 -14 -5 -15 5 -6 7 7 10 15 7 18 -3 3 -9 -2 -12 -12z"/>
<path d="M5243 4990 c0 -30 2 -43 4 -27 2 15 2 39 0 55 -2 15 -4 2 -4 -28z"/>
<path d="M11792 5003 c-15 -48 -8 -55 8 -8 7 20 10 38 8 41 -3 2 -10 -13 -16
-33z"/>
<path d="M4860 5006 c0 -2 8 -10 18 -17 15 -13 16 -12 3 4 -13 16 -21 21 -21
13z"/>
<path d="M12306 4988 c-3 -13 -5 -32 -5 -43 1 -11 5 -2 10 19 10 42 6 62 -5
24z"/>
<path d="M5009 4983 c-13 -16 -12 -17 4 -4 16 13 21 21 13 21 -2 0 -10 -8 -17
-17z"/>
<path d="M5860 4984 c0 -5 28 -36 61 -69 34 -33 70 -73 80 -90 10 -16 19 -24
19 -17 0 7 -35 50 -77 95 -42 45 -78 84 -80 86 -2 2 -3 0 -3 -5z"/>
<path d="M11756 4931 c-10 -11 -31 -25 -47 -31 -16 -7 -28 -15 -25 -17 7 -7
59 23 80 46 11 12 17 21 14 21 -3 0 -13 -9 -22 -19z"/>
<path d="M5251 4904 c0 -11 3 -14 6 -6 3 7 2 16 -1 19 -3 4 -6 -2 -5 -13z"/>
<path d="M5260 4872 c0 -26 50 -108 87 -143 42 -40 112 -89 127 -89 6 0 -12
14 -40 31 -75 47 -114 88 -145 154 -16 33 -29 54 -29 47z"/>
<path d="M11618 4863 c7 -3 16 -2 19 1 4 3 -2 6 -13 5 -11 0 -14 -3 -6 -6z"/>
<path d="M11578 4853 c7 -3 16 -2 19 1 4 3 -2 6 -13 5 -11 0 -14 -3 -6 -6z"/>
<path d="M11538 4843 c7 -3 16 -2 19 1 4 3 -2 6 -13 5 -11 0 -14 -3 -6 -6z"/>
<path d="M11498 4833 c7 -3 16 -2 19 1 4 3 -2 6 -13 5 -11 0 -14 -3 -6 -6z"/>
<path d="M11443 4823 c9 -2 23 -2 30 0 6 3 -1 5 -18 5 -16 0 -22 -2 -12 -5z"/>
<path d="M12574 4808 l-19 -23 23 19 c21 18 27 26 19 26 -2 0 -12 -10 -23 -22z"/>
<path d="M11373 4813 c9 -2 25 -2 35 0 9 3 1 5 -18 5 -19 0 -27 -2 -17 -5z"/>
<path d="M11284 4776 c-80 -57 -123 -77 -193 -91 -36 -7 -55 -14 -41 -14 53
-2 145 30 195 68 27 21 64 45 80 54 17 9 25 16 19 17 -7 0 -34 -15 -60 -34z"/>
<path d="M12335 4790 c10 -11 20 -20 23 -20 3 0 -3 9 -13 20 -10 11 -20 20
-23 20 -3 0 3 -9 13 -20z"/>
<path d="M12136 4780 c6 -8 16 -24 22 -35 6 -11 12 -15 12 -8 0 7 -10 22 -22
35 -13 13 -18 17 -12 8z"/>
<path d="M5690 4680 c-12 -22 -42 -40 -85 -51 -27 -6 -28 -7 -5 -8 31 -1 85
31 100 58 6 12 8 21 6 21 -3 0 -10 -9 -16 -20z"/>
<path d="M5533 4623 c9 -2 23 -2 30 0 6 3 -1 5 -18 5 -16 0 -22 -2 -12 -5z"/>
<path d="M12114 4538 l-19 -23 23 19 c21 18 27 26 19 26 -2 0 -12 -10 -23 -22z"/>
<path d="M6940 4110 c47 -23 102 -44 122 -47 34 -5 41 -2 71 31 18 20 41 36
50 36 9 0 42 -22 74 -48 86 -72 105 -82 170 -92 33 -6 90 -26 127 -45 45 -23
81 -35 109 -35 43 0 155 27 171 41 5 5 -22 0 -60 -11 -100 -29 -141 -26 -220
15 -37 19 -93 39 -126 44 -69 12 -64 9 -154 83 -39 32 -80 58 -91 58 -10 0
-33 -16 -50 -35 -40 -45 -68 -45 -159 -1 -39 18 -81 37 -95 40 -13 4 14 -12
61 -34z"/>
<path d="M9963 4091 c-22 -15 -67 -51 -98 -79 -37 -34 -66 -52 -83 -53 -15 0
-21 -3 -14 -6 25 -10 58 7 109 56 29 27 72 62 97 76 44 26 55 36 39 34 -5 0
-27 -13 -50 -28z"/>
<path d="M8723 3960 c-41 -25 -41 -40 -1 -85 29 -34 113 -85 139 -85 7 0 -15
14 -49 31 -55 27 -112 77 -112 98 0 4 9 16 19 25 29 26 90 31 155 12 107 -31
148 -36 231 -24 79 11 81 11 152 -20 51 -23 85 -32 120 -31 l48 2 -60 7 c-33
4 -87 20 -120 35 -57 28 -62 28 -136 17 -75 -11 -171 0 -246 29 -41 15 -106
10 -140 -11z"/>
<path d="M9555 3953 c-21 -14 -60 -34 -85 -44 -25 -10 -39 -18 -32 -19 20 0
83 28 125 57 34 24 43 25 115 20 56 -4 66 -3 37 3 -75 16 -118 12 -160 -17z"/>
<path d="M6856 3951 c-4 -5 3 -7 14 -4 23 6 26 13 6 13 -8 0 -17 -4 -20 -9z"/>
<path d="M7870 3941 c14 -5 52 -22 84 -40 33 -17 72 -31 90 -30 28 1 27 2 -10
9 -23 5 -66 22 -96 39 -30 17 -63 31 -74 30 -15 -1 -13 -3 6 -8z"/>
<path d="M6023 3933 c9 -2 25 -2 35 0 9 3 1 5 -18 5 -19 0 -27 -2 -17 -5z"/>
<path d="M6108 3923 c7 -3 16 -2 19 1 4 3 -2 6 -13 5 -11 0 -14 -3 -6 -6z"/>
<path d="M6832 3910 c0 -14 2 -19 5 -12 2 6 2 18 0 25 -3 6 -5 1 -5 -13z"/>
<path d="M6950 3927 c6 -6 107 -75 124 -83 6 -4 -2 5 -19 19 -27 23 -117 78
-105 64z"/>
<path d="M10173 3923 c15 -2 39 -2 55 0 15 2 2 4 -28 4 -30 0 -43 -2 -27 -4z"/>
<path d="M10352 3923 c10 -2 22 -19 27 -36 5 -18 10 -24 10 -14 1 28 -18 57
-37 56 -16 -1 -16 -2 0 -6z"/>
<path d="M6141 3916 c2 -2 15 -9 29 -15 24 -11 24 -11 6 3 -16 13 -49 24 -35
12z"/>
<path d="M10093 3888 c-32 -35 -58 -77 -50 -84 2 -3 10 9 17 26 7 16 28 44 47
60 18 17 30 30 25 30 -4 0 -22 -15 -39 -32z"/>
<path d="M10298 3913 c7 -3 16 -2 19 1 4 3 -2 6 -13 5 -11 0 -14 -3 -6 -6z"/>
<path d="M6245 3842 c27 -29 51 -52 53 -52 8 0 -44 57 -73 79 -16 14 -8 1 20
-27z"/>
<path d="M6840 3874 c0 -6 7 -19 16 -30 14 -18 14 -18 3 6 -14 31 -19 36 -19
24z"/>
<path d="M8098 3863 c12 -2 30 -2 40 0 9 3 -1 5 -23 4 -22 0 -30 -2 -17 -4z"/>
<path d="M7100 3830 c8 -5 22 -9 30 -9 10 0 8 3 -5 9 -27 12 -43 12 -25 0z"/>
<path d="M6907 3779 c24 -24 57 -53 75 -62 32 -17 32 -17 8 0 -14 10 -47 38
-75 63 l-50 44 42 -45z"/>
<path d="M7183 3813 c9 -2 23 -2 30 0 6 3 -1 5 -18 5 -16 0 -22 -2 -12 -5z"/>
<path d="M10345 3799 c-4 -6 -5 -12 -2 -15 2 -3 7 2 10 11 7 17 1 20 -8 4z"/>
<path d="M7261 3796 c10 -9 89 -46 89 -41 0 5 -75 45 -86 45 -4 0 -5 -2 -3 -4z"/>
<path d="M8888 3783 c7 -3 16 -2 19 1 4 3 -2 6 -13 5 -11 0 -14 -3 -6 -6z"/>
<path d="M10025 3771 c-3 -12 -18 -36 -33 -54 -23 -28 -23 -29 -3 -12 25 22
55 74 48 82 -3 2 -8 -5 -12 -16z"/>
<path d="M8933 3773 c9 -2 23 -2 30 0 6 3 -1 5 -18 5 -16 0 -22 -2 -12 -5z"/>
<path d="M8993 3763 c9 -2 23 -2 30 0 6 3 -1 5 -18 5 -16 0 -22 -2 -12 -5z"/>
<path d="M9070 3761 c14 -5 48 -20 77 -35 29 -14 56 -26 60 -26 17 2 -123 69
-142 69 -16 -1 -15 -2 5 -8z"/>
<path d="M7360 3745 c0 -7 61 -37 66 -33 2 3 -12 12 -31 21 -19 9 -35 15 -35
12z"/>
<path d="M7595 3725 c24 -8 116 -12 103 -4 -7 5 -35 8 -63 8 -27 0 -45 -2 -40
-4z"/>
<path d="M7558 3713 c7 -3 16 -2 19 1 4 3 -2 6 -13 5 -11 0 -14 -3 -6 -6z"/>
<path d="M9286 3712 c-2 -4 11 -6 30 -4 19 2 34 6 34 8 0 8 -59 4 -64 -4z"/>
<path d="M7518 3703 c7 -3 16 -2 19 1 4 3 -2 6 -13 5 -11 0 -14 -3 -6 -6z"/>
<path d="M9368 3703 c6 -2 18 -2 25 0 6 3 1 5 -13 5 -14 0 -19 -2 -12 -5z"/>
<path d="M9666 3679 c-21 -18 -52 -35 -69 -39 -30 -8 -31 -8 -5 -9 15 -1 39
10 56 24 17 14 43 32 59 40 15 8 21 15 13 15 -9 0 -33 -14 -54 -31z"/>
<path d="M11089 3683 l-24 -28 28 24 c15 14 27 26 27 28 0 8 -8 1 -31 -24z"/>
<path d="M7770 3680 c19 -11 40 -19 45 -19 6 0 -6 8 -25 19 -19 11 -39 19 -45
19 -5 0 6 -8 25 -19z"/>
<path d="M9233 3693 c9 -2 23 -2 30 0 6 3 -1 5 -18 5 -16 0 -22 -2 -12 -5z"/>
<path d="M9452 3690 c14 -4 32 -11 40 -15 7 -3 4 1 -6 9 -11 9 -29 16 -40 15
-17 -1 -16 -2 6 -9z"/>
<path d="M8050 3670 c8 -5 20 -10 25 -10 6 0 3 5 -5 10 -8 5 -19 10 -25 10 -5
0 -3 -5 5 -10z"/>
<path d="M8221 3676 c2 -2 22 -6 44 -9 27 -4 35 -3 25 3 -14 9 -79 15 -69 6z"/>
<path d="M9848 3673 c6 -2 18 -2 25 0 6 3 1 5 -13 5 -14 0 -19 -2 -12 -5z"/>
<path d="M8188 3663 c7 -3 16 -2 19 1 4 3 -2 6 -13 5 -11 0 -14 -3 -6 -6z"/>
<path d="M9517 3659 c7 -7 15 -10 18 -7 3 3 -2 9 -12 12 -14 6 -15 5 -6 -5z"/>
<path d="M10375 3650 c10 -11 20 -20 23 -20 3 0 -3 9 -13 20 -10 11 -20 20
-23 20 -3 0 3 -9 13 -20z"/>
<path d="M7105 3636 c10 -14 19 -26 22 -26 7 0 -17 39 -28 46 -6 3 -3 -5 6
-20z"/>
<path d="M8108 3653 c12 -2 30 -2 40 0 9 3 -1 5 -23 4 -22 0 -30 -2 -17 -4z"/>
<path d="M8330 3646 c0 -13 62 -36 92 -35 32 1 32 2 -7 8 -22 4 -50 13 -62 19
-13 7 -23 10 -23 8z"/>
<path d="M8573 3643 c9 -2 23 -2 30 0 6 3 -1 5 -18 5 -16 0 -22 -2 -12 -5z"/>
<path d="M7878 3633 c6 -2 18 -2 25 0 6 3 1 5 -13 5 -14 0 -19 -2 -12 -5z"/>
<path d="M8508 3633 c7 -3 16 -2 19 1 4 3 -2 6 -13 5 -11 0 -14 -3 -6 -6z"/>
<path d="M8648 3633 c7 -3 16 -2 19 1 4 3 -2 6 -13 5 -11 0 -14 -3 -6 -6z"/>
<path d="M8681 3628 c2 -2 18 -14 34 -28 l30 -25 -24 28 c-14 15 -29 27 -34
27 -6 0 -8 -1 -6 -2z"/>
<path d="M8689 3483 l-34 -38 38 34 c34 33 42 41 34 41 -2 0 -19 -17 -38 -37z"/>
<path d="M8619 3429 l-24 -20 28 17 c15 9 27 18 27 20 0 8 -8 4 -31 -17z"/>
<path d="M7390 3426 c0 -2 8 -10 18 -17 15 -13 16 -12 3 4 -13 16 -21 21 -21
13z"/>
<path d="M7970 3316 c0 -2 8 -10 18 -17 15 -13 16 -12 3 4 -13 16 -21 21 -21
13z"/>
</g>
</svg>
